<svg xmlns="http://www.w3.org/2000/svg" xmlns:xlink="http://www.w3.org/1999/xlink" width="500" zoomAndPan="magnify" viewBox="0 0 375 374.999991" height="500" preserveAspectRatio="xMidYMid meet" version="1.0"><defs><g/><clipPath id="e91bc57e4c"><path d="M 150.558594 96.4375 L 224.808594 96.4375 L 224.808594 178.1875 L 150.558594 178.1875 Z M 150.558594 96.4375 " clip-rule="nonzero"/></clipPath></defs><rect x="-37.5" width="450" fill="#ffffff" y="-37.499999" height="449.999989" fill-opacity="1"/><rect x="-37.5" width="450" fill="#ffffff" y="-37.499999" height="449.999989" fill-opacity="1"/><g clip-path="url(#e91bc57e4c)"><path fill="#000000" d="M 223.300781 116.582031 C 221.917969 111.921875 219.050781 107.832031 215.128906 104.921875 C 207.417969 98.921875 200.207031 96.433594 191.777344 96.859375 C 187.328125 97.164062 182.910156 97.792969 178.554688 98.734375 C 172.386719 99.964844 167.910156 102.117188 164.863281 105.308594 C 162.445312 107.863281 160.578125 110.882812 159.378906 114.179688 C 158.871094 115.621094 158.457031 117.097656 158.140625 118.59375 L 158.027344 119.085938 C 157.738281 120.140625 157.351562 121.164062 156.867188 122.144531 C 156.585938 122.773438 156.300781 123.402344 156.058594 124.042969 C 155.742188 124.761719 155.617188 125.546875 155.691406 126.328125 C 155.96875 127.539062 156.675781 128.613281 157.683594 129.347656 C 158.355469 129.957031 158.792969 130.386719 158.796875 130.773438 C 158.746094 130.976562 158.664062 131.171875 158.558594 131.355469 C 156.921875 134.777344 154.917969 138.015625 152.578125 141.011719 C 151.597656 142.199219 150.566406 143.585938 150.773438 144.996094 C 151.074219 146.066406 151.785156 146.976562 152.757812 147.527344 C 153.207031 147.835938 153.683594 148.113281 154.183594 148.347656 C 154.773438 148.644531 155.757812 149.144531 155.828125 149.5 C 155.917969 149.960938 155.863281 150.433594 155.679688 150.863281 C 155.476562 151.285156 155.265625 151.652344 155.082031 151.972656 C 154.582031 152.851562 153.738281 154.328125 155.007812 155.382812 C 155.300781 155.640625 155.808594 156.035156 156.269531 156.382812 C 155.925781 156.980469 155.773438 157.664062 155.828125 158.347656 C 155.902344 158.878906 156.195312 159.355469 156.632812 159.667969 C 156.9375 159.882812 157.265625 160.070312 157.589844 160.253906 C 158.394531 160.707031 158.707031 160.917969 158.816406 161.34375 C 158.886719 161.894531 158.835938 162.457031 158.667969 162.988281 C 158.589844 163.34375 158.511719 163.699219 158.464844 164.054688 C 158.328125 165.285156 158.484375 166.535156 158.921875 167.695312 C 159.628906 170.273438 162.246094 171.847656 164.875 171.28125 C 168.777344 170.347656 172.628906 169.207031 176.40625 167.859375 C 179.480469 169.660156 181.417969 175.109375 181.925781 177.152344 C 182.078125 177.761719 182.625 178.1875 183.253906 178.1875 L 217.8125 178.1875 C 218.246094 178.1875 218.652344 177.984375 218.910156 177.636719 C 219.167969 177.292969 219.246094 176.84375 219.117188 176.433594 C 218.753906 175.476562 218.234375 174.589844 217.578125 173.800781 C 217.207031 173.332031 216.878906 172.832031 216.59375 172.304688 C 215.976562 171.054688 215.460938 169.757812 215.050781 168.425781 C 214.269531 165.808594 213.730469 163.125 213.4375 160.40625 C 212.957031 156.351562 213.574219 152.242188 215.226562 148.5 C 216.238281 146.433594 217.480469 144.484375 218.9375 142.691406 C 219.761719 141.589844 220.617188 140.449219 221.382812 139.246094 C 223.542969 135.921875 224.703125 132.054688 224.730469 128.097656 C 224.8125 124.214844 224.332031 120.335938 223.300781 116.582031 Z M 221.996094 128.0625 C 221.972656 131.515625 220.960938 134.890625 219.074219 137.796875 C 218.359375 138.910156 217.539062 140.011719 216.742188 141.074219 C 215.164062 143.03125 213.816406 145.160156 212.722656 147.417969 C 210.871094 151.601562 210.183594 156.199219 210.726562 160.734375 C 211.035156 163.609375 211.609375 166.453125 212.4375 169.226562 C 212.890625 170.691406 213.457031 172.113281 214.132812 173.488281 C 214.488281 174.160156 214.902344 174.800781 215.371094 175.398438 C 215.390625 175.425781 215.410156 175.449219 215.425781 175.476562 L 184.289062 175.476562 C 183.378906 172.257812 181.730469 169.289062 179.46875 166.808594 C 179.828125 166.6875 180.167969 166.570312 180.480469 166.457031 C 181.507812 166.101562 182.277344 165.832031 182.664062 165.710938 C 188.523438 163.886719 191.457031 161.246094 191.375 157.859375 C 191.359375 157.109375 190.730469 156.515625 189.976562 156.535156 C 189.222656 156.550781 188.625 157.171875 188.644531 157.921875 C 188.675781 159.320312 187.523438 161.355469 181.84375 163.125 C 181.441406 163.25 180.640625 163.53125 179.578125 163.898438 C 178.597656 164.238281 177.390625 164.65625 176.070312 165.105469 L 176.0625 165.109375 C 172.21875 166.492188 168.296875 167.664062 164.324219 168.625 C 163.042969 168.871094 161.796875 168.070312 161.503906 166.808594 C 161.207031 166.046875 161.09375 165.226562 161.171875 164.414062 C 161.210938 164.132812 161.273438 163.851562 161.335938 163.570312 C 161.617188 162.628906 161.660156 161.636719 161.464844 160.675781 C 161.074219 159.429688 160.152344 158.414062 158.945312 157.898438 C 158.847656 157.84375 158.75 157.785156 158.652344 157.730469 C 158.800781 157.433594 158.972656 157.152344 159.175781 156.890625 C 159.40625 156.601562 159.503906 156.234375 159.457031 155.871094 C 159.40625 155.507812 159.210938 155.179688 158.914062 154.964844 C 158.585938 154.722656 157.804688 154.140625 157.242188 153.699219 C 157.3125 153.570312 157.390625 153.433594 157.460938 153.308594 C 157.671875 152.9375 157.914062 152.515625 158.144531 152.027344 C 158.585938 151.078125 158.710938 150.019531 158.515625 148.992188 C 158.195312 147.332031 156.59375 146.523438 155.425781 145.929688 C 155.027344 145.742188 154.648438 145.523438 154.289062 145.277344 C 154.003906 145.082031 153.734375 144.863281 153.484375 144.628906 C 153.488281 144.425781 153.699219 143.929688 154.753906 142.65625 C 157.195312 139.53125 159.289062 136.152344 160.996094 132.582031 C 161.328125 132.019531 161.511719 131.390625 161.53125 130.742188 C 161.394531 129.375 160.664062 128.136719 159.53125 127.347656 C 158.976562 126.847656 158.457031 126.371094 158.398438 125.957031 C 158.402344 125.625 158.476562 125.300781 158.617188 125.003906 C 158.839844 124.410156 159.105469 123.832031 159.363281 123.253906 C 159.921875 122.113281 160.363281 120.925781 160.691406 119.699219 L 160.804688 119.203125 C 161.097656 117.820312 161.476562 116.453125 161.941406 115.117188 C 163.015625 112.167969 164.683594 109.464844 166.84375 107.175781 C 169.492188 104.402344 173.5 102.511719 179.09375 101.394531 C 183.316406 100.476562 187.605469 99.867188 191.917969 99.570312 C 199.652344 99.183594 206.289062 101.488281 213.445312 107.058594 C 216.921875 109.601562 219.460938 113.210938 220.671875 117.324219 C 221.628906 120.824219 222.074219 124.4375 221.996094 128.0625 Z M 221.996094 128.0625 " fill-opacity="1" fill-rule="nonzero"/></g><path fill="#000000" d="M 216.164062 118.75 L 213.332031 118.75 C 213.015625 117.6875 212.585938 116.664062 212.054688 115.691406 L 214.058594 113.703125 C 214.527344 113.238281 214.59375 112.503906 214.214844 111.964844 C 212.898438 110.097656 211.261719 108.472656 209.375 107.167969 C 208.832031 106.789062 208.09375 106.855469 207.628906 107.320312 L 205.621094 109.308594 C 204.644531 108.78125 203.609375 108.355469 202.539062 108.042969 L 202.539062 105.230469 C 202.539062 104.574219 202.066406 104.011719 201.414062 103.894531 C 199.152344 103.5 196.835938 103.5 194.570312 103.894531 C 193.921875 104.011719 193.445312 104.574219 193.445312 105.230469 L 193.445312 108.042969 C 192.375 108.355469 191.34375 108.78125 190.363281 109.308594 L 188.359375 107.320312 C 187.890625 106.855469 187.152344 106.789062 186.609375 107.167969 C 184.722656 108.472656 183.085938 110.097656 181.773438 111.96875 C 181.394531 112.503906 181.457031 113.238281 181.925781 113.703125 L 183.933594 115.691406 C 183.398438 116.664062 182.96875 117.6875 182.65625 118.75 L 179.820312 118.75 C 179.160156 118.75 178.59375 119.21875 178.476562 119.867188 C 178.074219 122.113281 178.074219 124.410156 178.476562 126.65625 C 178.59375 127.304688 179.160156 127.773438 179.820312 127.773438 L 182.65625 127.773438 C 182.96875 128.835938 183.398438 129.859375 183.933594 130.832031 L 181.925781 132.820312 C 181.457031 133.285156 181.394531 134.015625 181.773438 134.554688 C 183.085938 136.425781 184.726562 138.050781 186.609375 139.355469 C 187.152344 139.730469 187.890625 139.667969 188.359375 139.203125 L 190.363281 137.210938 C 191.34375 137.742188 192.375 138.167969 193.445312 138.480469 L 193.445312 141.292969 C 193.445312 141.949219 193.921875 142.511719 194.574219 142.628906 C 196.835938 143.027344 199.152344 143.027344 201.414062 142.628906 C 202.066406 142.511719 202.539062 141.949219 202.539062 141.292969 L 202.539062 138.480469 C 203.609375 138.167969 204.644531 137.742188 205.621094 137.210938 L 207.628906 139.203125 C 208.097656 139.667969 208.832031 139.730469 209.375 139.355469 C 211.261719 138.050781 212.898438 136.425781 214.214844 134.554688 C 214.59375 134.015625 214.527344 133.285156 214.058594 132.820312 L 212.054688 130.832031 C 212.585938 129.859375 213.015625 128.835938 213.332031 127.773438 L 216.164062 127.773438 C 216.828125 127.773438 217.394531 127.304688 217.511719 126.65625 C 217.914062 124.410156 217.914062 122.113281 217.511719 119.867188 C 217.394531 119.21875 216.828125 118.75 216.164062 118.75 Z M 214.980469 125.0625 L 212.269531 125.0625 C 211.628906 125.0625 211.074219 125.503906 210.9375 126.125 C 210.609375 127.613281 210.015625 129.03125 209.1875 130.3125 C 208.839844 130.847656 208.914062 131.554688 209.371094 132.003906 L 211.289062 133.90625 C 210.527344 134.84375 209.667969 135.699219 208.722656 136.453125 L 206.804688 134.550781 C 206.351562 134.101562 205.640625 134.023438 205.101562 134.367188 C 203.808594 135.191406 202.378906 135.777344 200.878906 136.105469 C 200.253906 136.242188 199.808594 136.792969 199.808594 137.429688 L 199.808594 140.117188 C 198.601562 140.246094 197.382812 140.246094 196.179688 140.117188 L 196.179688 137.429688 C 196.179688 136.792969 195.730469 136.242188 195.105469 136.105469 C 193.605469 135.777344 192.175781 135.191406 190.886719 134.367188 C 190.34375 134.023438 189.632812 134.097656 189.179688 134.550781 L 187.261719 136.453125 C 186.316406 135.699219 185.457031 134.84375 184.695312 133.90625 L 186.617188 132.003906 C 187.070312 131.554688 187.144531 130.847656 186.796875 130.3125 C 185.96875 129.03125 185.378906 127.613281 185.050781 126.125 C 184.910156 125.503906 184.355469 125.0625 183.714844 125.0625 L 181.003906 125.0625 C 180.875 123.863281 180.875 122.65625 181.003906 121.460938 L 183.714844 121.460938 C 184.355469 121.460938 184.910156 121.015625 185.050781 120.394531 C 185.378906 118.910156 185.96875 117.492188 186.796875 116.210938 C 187.144531 115.671875 187.070312 114.96875 186.617188 114.519531 L 184.699219 112.613281 C 185.457031 111.675781 186.316406 110.824219 187.261719 110.070312 L 189.179688 111.972656 C 189.632812 112.421875 190.34375 112.5 190.886719 112.15625 C 192.175781 111.332031 193.605469 110.742188 195.105469 110.417969 C 195.734375 110.28125 196.179688 109.730469 196.179688 109.09375 L 196.179688 106.40625 C 197.382812 106.277344 198.601562 106.277344 199.808594 106.40625 L 199.808594 109.09375 C 199.808594 109.730469 200.253906 110.28125 200.878906 110.417969 C 202.378906 110.742188 203.808594 111.332031 205.101562 112.15625 C 205.640625 112.5 206.351562 112.421875 206.804688 111.972656 L 208.722656 110.070312 C 209.667969 110.824219 210.527344 111.675781 211.289062 112.613281 L 209.371094 114.519531 C 208.914062 114.96875 208.839844 115.671875 209.1875 116.210938 C 210.015625 117.492188 210.609375 118.910156 210.9375 120.394531 C 211.074219 121.015625 211.628906 121.460938 212.269531 121.460938 L 214.980469 121.460938 C 215.109375 122.65625 215.109375 123.863281 214.980469 125.0625 Z M 214.980469 125.0625 " fill-opacity="1" fill-rule="nonzero"/><path fill="#000000" d="M 179.542969 136.144531 L 177.980469 136.144531 C 177.851562 135.660156 177.65625 135.195312 177.398438 134.761719 L 178.503906 133.664062 C 179.039062 133.136719 179.039062 132.277344 178.503906 131.746094 C 177.972656 131.21875 177.105469 131.21875 176.574219 131.746094 L 175.464844 132.84375 C 175.03125 132.589844 174.5625 132.394531 174.074219 132.269531 L 174.074219 130.71875 C 174.074219 129.972656 173.460938 129.363281 172.707031 129.363281 C 171.953125 129.363281 171.339844 129.972656 171.339844 130.71875 L 171.339844 132.269531 C 170.851562 132.394531 170.382812 132.589844 169.949219 132.84375 L 168.839844 131.746094 C 168.496094 131.40625 167.992188 131.269531 167.519531 131.394531 C 167.050781 131.523438 166.679688 131.886719 166.554688 132.355469 C 166.429688 132.824219 166.5625 133.320312 166.910156 133.664062 L 168.015625 134.761719 C 167.757812 135.195312 167.5625 135.660156 167.433594 136.144531 L 165.875 136.144531 C 165.117188 136.144531 164.507812 136.753906 164.507812 137.5 C 164.507812 138.25 165.117188 138.859375 165.875 138.859375 L 167.433594 138.859375 C 167.5625 139.34375 167.757812 139.808594 168.015625 140.238281 L 166.910156 141.335938 C 166.5625 141.679688 166.429688 142.179688 166.554688 142.648438 C 166.679688 143.113281 167.050781 143.480469 167.519531 143.605469 C 167.992188 143.730469 168.496094 143.597656 168.839844 143.253906 L 169.949219 142.15625 C 170.382812 142.414062 170.851562 142.605469 171.339844 142.734375 L 171.339844 144.28125 C 171.339844 145.03125 171.953125 145.636719 172.707031 145.636719 C 173.460938 145.636719 174.074219 145.03125 174.074219 144.28125 L 174.074219 142.734375 C 174.5625 142.605469 175.03125 142.414062 175.464844 142.15625 L 176.574219 143.253906 C 177.105469 143.785156 177.972656 143.785156 178.503906 143.253906 C 179.039062 142.726562 179.039062 141.867188 178.503906 141.335938 L 177.398438 140.238281 C 177.65625 139.808594 177.851562 139.34375 177.980469 138.859375 L 179.542969 138.859375 C 180.296875 138.859375 180.90625 138.25 180.90625 137.5 C 180.90625 136.753906 180.296875 136.144531 179.542969 136.144531 Z M 172.707031 140.214844 C 171.195312 140.214844 169.972656 139 169.972656 137.5 C 169.972656 136.003906 171.195312 134.789062 172.707031 134.789062 C 174.214844 134.789062 175.441406 136.003906 175.441406 137.5 C 175.4375 139 174.214844 140.210938 172.707031 140.214844 Z M 172.707031 140.214844 " fill-opacity="1" fill-rule="nonzero"/><path fill="#000000" d="M 165.550781 122.582031 C 165.636719 122.855469 165.746094 123.117188 165.878906 123.371094 L 165.140625 124.105469 C 164.796875 124.445312 164.660156 124.945312 164.789062 125.414062 C 164.914062 125.882812 165.28125 126.246094 165.753906 126.371094 C 166.226562 126.5 166.730469 126.363281 167.074219 126.023438 L 167.816406 125.285156 C 168.070312 125.417969 168.332031 125.527344 168.605469 125.613281 L 168.605469 126.652344 C 168.605469 127.402344 169.21875 128.007812 169.972656 128.007812 C 170.726562 128.007812 171.339844 127.402344 171.339844 126.652344 L 171.339844 125.613281 C 171.613281 125.527344 171.878906 125.417969 172.132812 125.285156 L 172.871094 126.023438 C 173.40625 126.550781 174.273438 126.550781 174.804688 126.023438 C 175.339844 125.492188 175.339844 124.632812 174.804688 124.105469 L 174.066406 123.371094 C 174.199219 123.117188 174.308594 122.855469 174.394531 122.582031 L 175.441406 122.582031 C 176.195312 122.582031 176.808594 121.976562 176.808594 121.226562 C 176.808594 120.476562 176.195312 119.871094 175.441406 119.871094 L 174.394531 119.871094 C 174.308594 119.597656 174.199219 119.335938 174.066406 119.082031 L 174.804688 118.347656 C 175.152344 118.007812 175.285156 117.507812 175.160156 117.039062 C 175.03125 116.570312 174.664062 116.207031 174.191406 116.082031 C 173.722656 115.957031 173.21875 116.089844 172.871094 116.433594 L 172.132812 117.167969 C 171.878906 117.035156 171.613281 116.925781 171.339844 116.84375 L 171.339844 115.800781 C 171.339844 115.054688 170.726562 114.445312 169.972656 114.445312 C 169.21875 114.445312 168.605469 115.054688 168.605469 115.800781 L 168.605469 116.84375 C 168.332031 116.925781 168.070312 117.035156 167.816406 117.167969 L 167.074219 116.433594 C 166.539062 115.902344 165.675781 115.902344 165.140625 116.433594 C 164.605469 116.960938 164.605469 117.820312 165.140625 118.347656 L 165.878906 119.082031 C 165.746094 119.335938 165.636719 119.597656 165.550781 119.871094 L 164.507812 119.871094 C 163.75 119.871094 163.140625 120.476562 163.140625 121.226562 C 163.140625 121.976562 163.75 122.582031 164.507812 122.582031 Z M 169.476562 119.390625 C 170.3125 119.167969 171.199219 119.53125 171.632812 120.277344 C 172.0625 121.019531 171.9375 121.960938 171.328125 122.570312 C 170.78125 123.113281 169.957031 123.273438 169.242188 122.980469 C 168.527344 122.6875 168.058594 121.996094 168.058594 121.226562 C 168.058594 120.367188 168.640625 119.613281 169.476562 119.390625 Z M 169.476562 119.390625 " fill-opacity="1" fill-rule="nonzero"/><path fill="#000000" d="M 197.992188 114.445312 C 193.085938 114.445312 189.109375 118.394531 189.109375 123.261719 C 189.113281 128.128906 193.089844 132.070312 197.992188 132.078125 C 202.898438 132.078125 206.875 128.128906 206.875 123.261719 C 206.875 118.394531 202.898438 114.445312 197.992188 114.445312 Z M 197.992188 129.363281 C 194.597656 129.363281 191.84375 126.632812 191.84375 123.261719 C 191.847656 119.890625 194.597656 117.160156 197.992188 117.15625 C 201.390625 117.15625 204.144531 119.890625 204.144531 123.261719 C 204.144531 126.632812 201.390625 129.363281 197.992188 129.363281 Z M 197.992188 129.363281 " fill-opacity="1" fill-rule="nonzero"/><g fill="#000000" fill-opacity="1"><g transform="translate(129.737676, 208.549981)"><g><path d="M 4.890625 0 L 2.046875 0 L 2.046875 -15.703125 L 6.109375 -15.703125 L 10.078125 -4.15625 L 10.296875 -4.15625 L 14.25 -15.703125 L 18.21875 -15.703125 L 18.21875 0 L 15.28125 0 L 15.28125 -10.375 L 15 -10.421875 L 11.375 0 L 8.78125 0 L 5.15625 -10.421875 L 4.890625 -10.375 Z M 4.890625 0 "/></g></g></g><g fill="#000000" fill-opacity="1"><g transform="translate(150.004588, 208.549981)"><g><path d="M 3.1875 -13.265625 C 2.65625 -13.265625 2.21875 -13.425781 1.875 -13.75 C 1.539062 -14.082031 1.375 -14.503906 1.375 -15.015625 C 1.375 -15.523438 1.539062 -15.941406 1.875 -16.265625 C 2.21875 -16.597656 2.65625 -16.765625 3.1875 -16.765625 C 3.550781 -16.765625 3.867188 -16.6875 4.140625 -16.53125 C 4.421875 -16.382812 4.640625 -16.175781 4.796875 -15.90625 C 4.953125 -15.644531 5.03125 -15.347656 5.03125 -15.015625 C 5.03125 -14.679688 4.953125 -14.378906 4.796875 -14.109375 C 4.640625 -13.847656 4.421875 -13.640625 4.140625 -13.484375 C 3.867188 -13.335938 3.550781 -13.265625 3.1875 -13.265625 Z M 1.703125 0 L 1.703125 -11.84375 L 4.6875 -11.84375 L 4.6875 0 Z M 1.703125 0 "/></g></g></g><g fill="#000000" fill-opacity="1"><g transform="translate(156.384314, 208.549981)"><g><path d="M 1.703125 0 L 1.703125 -11.84375 L 4.5625 -11.84375 L 4.5625 -10.109375 L 4.796875 -10.0625 C 5.523438 -11.40625 6.71875 -12.078125 8.375 -12.078125 C 9.75 -12.078125 10.753906 -11.703125 11.390625 -10.953125 C 12.035156 -10.210938 12.359375 -9.128906 12.359375 -7.703125 L 12.359375 0 L 9.375 0 L 9.375 -7.34375 C 9.375 -8.125 9.21875 -8.6875 8.90625 -9.03125 C 8.59375 -9.382812 8.085938 -9.5625 7.390625 -9.5625 C 6.535156 -9.5625 5.867188 -9.285156 5.390625 -8.734375 C 4.921875 -8.179688 4.6875 -7.316406 4.6875 -6.140625 L 4.6875 0 Z M 1.703125 0 "/></g></g></g><g fill="#000000" fill-opacity="1"><g transform="translate(170.260756, 208.549981)"><g><path d="M 5.859375 0.21875 C 4.921875 0.21875 4.085938 -0.00390625 3.359375 -0.453125 C 2.640625 -0.910156 2.078125 -1.597656 1.671875 -2.515625 C 1.265625 -3.441406 1.0625 -4.578125 1.0625 -5.921875 C 1.0625 -7.273438 1.269531 -8.410156 1.6875 -9.328125 C 2.113281 -10.242188 2.695312 -10.929688 3.4375 -11.390625 C 4.175781 -11.847656 5.03125 -12.078125 6 -12.078125 C 6.738281 -12.078125 7.378906 -11.945312 7.921875 -11.6875 C 8.460938 -11.4375 8.921875 -11.039062 9.296875 -10.5 L 9.515625 -10.5625 L 9.515625 -16.609375 L 12.5 -16.609375 L 12.5 0 L 9.515625 0 L 9.515625 -1.53125 L 9.296875 -1.578125 C 8.960938 -1.015625 8.507812 -0.570312 7.9375 -0.25 C 7.363281 0.0625 6.671875 0.21875 5.859375 0.21875 Z M 6.828125 -2.296875 C 7.660156 -2.296875 8.320312 -2.59375 8.8125 -3.1875 C 9.300781 -3.789062 9.546875 -4.703125 9.546875 -5.921875 C 9.546875 -7.140625 9.300781 -8.046875 8.8125 -8.640625 C 8.320312 -9.242188 7.660156 -9.546875 6.828125 -9.546875 C 5.953125 -9.546875 5.28125 -9.253906 4.8125 -8.671875 C 4.351562 -8.085938 4.125 -7.171875 4.125 -5.921875 C 4.125 -4.671875 4.351562 -3.753906 4.8125 -3.171875 C 5.28125 -2.585938 5.953125 -2.296875 6.828125 -2.296875 Z M 6.828125 -2.296875 "/></g></g></g><g fill="#000000" fill-opacity="1"><g transform="translate(184.459405, 208.549981)"><g/></g></g><g fill="#000000" fill-opacity="1"><g transform="translate(189.646966, 208.549981)"><g><path d="M 6.96875 0.21875 C 5.875 0.21875 4.898438 0.0859375 4.046875 -0.171875 C 3.203125 -0.441406 2.492188 -0.796875 1.921875 -1.234375 C 1.359375 -1.671875 0.929688 -2.148438 0.640625 -2.671875 L 2.34375 -4.765625 L 2.609375 -4.765625 C 3.078125 -4.054688 3.675781 -3.492188 4.40625 -3.078125 C 5.132812 -2.660156 5.988281 -2.453125 6.96875 -2.453125 C 7.789062 -2.453125 8.410156 -2.628906 8.828125 -2.984375 C 9.253906 -3.335938 9.46875 -3.820312 9.46875 -4.4375 C 9.46875 -4.8125 9.398438 -5.125 9.265625 -5.375 C 9.128906 -5.625 8.90625 -5.835938 8.59375 -6.015625 C 8.28125 -6.191406 7.851562 -6.347656 7.3125 -6.484375 L 5.296875 -6.9375 C 3.890625 -7.257812 2.835938 -7.796875 2.140625 -8.546875 C 1.453125 -9.296875 1.109375 -10.269531 1.109375 -11.46875 C 1.109375 -12.351562 1.328125 -13.128906 1.765625 -13.796875 C 2.210938 -14.472656 2.859375 -15 3.703125 -15.375 C 4.554688 -15.75 5.570312 -15.9375 6.75 -15.9375 C 7.96875 -15.9375 9.003906 -15.773438 9.859375 -15.453125 C 10.722656 -15.128906 11.453125 -14.640625 12.046875 -13.984375 L 10.515625 -11.875 L 10.25 -11.875 C 9.800781 -12.34375 9.289062 -12.691406 8.71875 -12.921875 C 8.144531 -13.160156 7.488281 -13.28125 6.75 -13.28125 C 5.90625 -13.28125 5.257812 -13.128906 4.8125 -12.828125 C 4.363281 -12.523438 4.140625 -12.109375 4.140625 -11.578125 C 4.140625 -11.085938 4.296875 -10.691406 4.609375 -10.390625 C 4.921875 -10.097656 5.460938 -9.875 6.234375 -9.71875 L 8.296875 -9.28125 C 9.816406 -8.957031 10.921875 -8.410156 11.609375 -7.640625 C 12.296875 -6.867188 12.640625 -5.863281 12.640625 -4.625 C 12.640625 -3.644531 12.425781 -2.789062 12 -2.0625 C 11.582031 -1.34375 10.945312 -0.78125 10.09375 -0.375 C 9.238281 0.0195312 8.195312 0.21875 6.96875 0.21875 Z M 6.96875 0.21875 "/></g></g></g><g fill="#000000" fill-opacity="1"><g transform="translate(203.136757, 208.549981)"><g><path d="M 1.703125 0 L 1.703125 -16.609375 L 4.6875 -16.609375 L 4.6875 -10.296875 L 4.90625 -10.265625 C 5.300781 -10.835938 5.785156 -11.28125 6.359375 -11.59375 C 6.929688 -11.914062 7.625 -12.078125 8.4375 -12.078125 C 11.050781 -12.078125 12.359375 -10.59375 12.359375 -7.625 L 12.359375 0 L 9.375 0 L 9.375 -7.25 C 9.375 -8.0625 9.210938 -8.648438 8.890625 -9.015625 C 8.566406 -9.378906 8.066406 -9.5625 7.390625 -9.5625 C 6.554688 -9.5625 5.894531 -9.28125 5.40625 -8.71875 C 4.925781 -8.164062 4.6875 -7.304688 4.6875 -6.140625 L 4.6875 0 Z M 1.703125 0 "/></g></g></g><g fill="#000000" fill-opacity="1"><g transform="translate(217.013198, 208.549981)"><g><path d="M 11.703125 -5.25 L 4.09375 -5.25 C 4.175781 -4.21875 4.46875 -3.46875 4.96875 -3 C 5.46875 -2.53125 6.15625 -2.296875 7.03125 -2.296875 C 7.707031 -2.296875 8.253906 -2.421875 8.671875 -2.671875 C 9.097656 -2.929688 9.441406 -3.316406 9.703125 -3.828125 L 9.921875 -3.828125 L 11.90625 -2.5625 C 11.519531 -1.738281 10.9375 -1.066406 10.15625 -0.546875 C 9.375 -0.0351562 8.332031 0.21875 7.03125 0.21875 C 5.800781 0.21875 4.738281 -0.0078125 3.84375 -0.46875 C 2.957031 -0.9375 2.269531 -1.628906 1.78125 -2.546875 C 1.300781 -3.472656 1.0625 -4.597656 1.0625 -5.921875 C 1.0625 -7.265625 1.316406 -8.394531 1.828125 -9.3125 C 2.335938 -10.238281 3.023438 -10.929688 3.890625 -11.390625 C 4.753906 -11.847656 5.726562 -12.078125 6.8125 -12.078125 C 8.488281 -12.078125 9.769531 -11.628906 10.65625 -10.734375 C 11.550781 -9.847656 12 -8.546875 12 -6.828125 C 12 -6.203125 11.976562 -5.71875 11.9375 -5.375 Z M 9.15625 -7.171875 C 9.125 -8.078125 8.910156 -8.734375 8.515625 -9.140625 C 8.128906 -9.554688 7.5625 -9.765625 6.8125 -9.765625 C 5.3125 -9.765625 4.425781 -8.898438 4.15625 -7.171875 Z M 9.15625 -7.171875 "/></g></g></g><g fill="#000000" fill-opacity="1"><g transform="translate(229.890799, 208.549981)"><g><path d="M 4.921875 0.21875 C 3.847656 0.21875 3.03125 -0.0664062 2.46875 -0.640625 C 1.914062 -1.210938 1.640625 -2.085938 1.640625 -3.265625 L 1.640625 -16.609375 L 4.609375 -16.609375 L 4.609375 -3.390625 C 4.609375 -2.660156 4.910156 -2.296875 5.515625 -2.296875 C 5.679688 -2.296875 5.863281 -2.328125 6.0625 -2.390625 L 6.203125 -2.34375 L 6.484375 -0.046875 C 6.316406 0.0351562 6.097656 0.0976562 5.828125 0.140625 C 5.554688 0.191406 5.253906 0.21875 4.921875 0.21875 Z M 4.921875 0.21875 "/></g></g></g><g fill="#000000" fill-opacity="1"><g transform="translate(236.700136, 208.549981)"><g><path d="M 2.078125 0 L 2.078125 -9.5 L 0.390625 -9.5 L 0.390625 -11.859375 L 2.078125 -11.859375 C 1.953125 -12.359375 1.890625 -12.828125 1.890625 -13.265625 C 1.890625 -14.015625 2.0625 -14.65625 2.40625 -15.1875 C 2.75 -15.726562 3.242188 -16.132812 3.890625 -16.40625 C 4.535156 -16.6875 5.300781 -16.828125 6.1875 -16.828125 C 7.5 -16.828125 8.476562 -16.601562 9.125 -16.15625 L 8.421875 -13.96875 L 8.203125 -13.921875 C 7.753906 -14.234375 7.179688 -14.390625 6.484375 -14.390625 C 5.953125 -14.390625 5.550781 -14.257812 5.28125 -14 C 5.007812 -13.738281 4.875 -13.382812 4.875 -12.9375 C 4.875 -12.738281 4.882812 -12.554688 4.90625 -12.390625 C 4.9375 -12.234375 4.984375 -12.054688 5.046875 -11.859375 L 8.4375 -11.859375 L 8.4375 -9.5 L 5.046875 -9.5 L 5.046875 0 Z M 2.078125 0 "/></g></g></g></svg>