<?xml version="1.0" encoding="UTF-8"?>
<!-- Generator: visioncortex VTracer 0.6.1 -->
<svg version="1.1" xmlns="http://www.w3.org/2000/svg" width="1280" height="1280">
<path d="M0 0 C0.88163818 -0.00828323 1.76327637 -0.01656647 2.67163086 -0.02510071 C5.53823698 -0.04098405 8.40301579 -0.02202482 11.26953125 0.00390625 C12.24266266 0.00783386 13.21579407 0.01176147 14.21841431 0.01580811 C29.64325299 0.104011 44.22510636 1.07732743 59.08203125 5.56640625 C59.84354492 5.79634277 60.60505859 6.0262793 61.38964844 6.26318359 C71.78429276 9.5460697 81.45213429 14.52095492 91.08203125 19.56640625 C91.08203125 20.22640625 91.08203125 20.88640625 91.08203125 21.56640625 C91.62214844 21.64503906 92.16226563 21.72367187 92.71875 21.8046875 C95.97043173 22.85275021 98.18736353 24.67922188 100.89453125 26.75390625 C101.42208008 27.15810791 101.94962891 27.56230957 102.49316406 27.97875977 C106.47900776 31.05245376 110.39920268 34.13467963 114.08203125 37.56640625 C114.08203125 38.22640625 114.08203125 38.88640625 114.08203125 39.56640625 C114.74203125 39.56640625 115.40203125 39.56640625 116.08203125 39.56640625 C117.58984375 40.9921875 117.58984375 40.9921875 119.20703125 42.87890625 C119.74585938 43.49378906 120.2846875 44.10867188 120.83984375 44.7421875 C122.08203125 46.56640625 122.08203125 46.56640625 122.08203125 49.56640625 C122.66210938 49.77523437 123.2421875 49.9840625 123.83984375 50.19921875 C134.42055173 56.65086996 140.76709458 77.46211166 144.08203125 88.56640625 C144.35917969 89.43652344 144.63632812 90.30664062 144.921875 91.203125 C148.75833764 103.97224692 149.47322785 117.38220314 149.50756836 130.640625 C149.51960885 132.83052048 149.56918399 135.01771235 149.61914062 137.20703125 C149.70834262 145.25171674 148.87939147 151.73034242 145.16040039 159.04199219 C143.38120983 163.20699794 143.77156862 165.76807376 145.39453125 169.94140625 C145.95140625 171.13765625 146.50828125 172.33390625 147.08203125 173.56640625 C150.13061648 180.42572301 152.45270603 187.36044806 154.51953125 194.56640625 C156.30740802 200.60400058 158.80373327 206.23807779 161.83203125 211.75390625 C164.16494815 217.3687232 164.12519883 223.6668707 163.08203125 229.56640625 C161.09273375 233.08451572 158.9150102 234.40195695 155.08203125 235.56640625 C150.02004587 236.01590647 145.14481016 235.92238289 140.08203125 235.56640625 C140.45457031 236.43523437 140.82710937 237.3040625 141.2109375 238.19921875 C141.68402344 239.35164062 142.15710938 240.5040625 142.64453125 241.69140625 C143.12019531 242.82835937 143.59585938 243.9653125 144.0859375 245.13671875 C145.17758515 248.89541144 145.38117604 250.87851137 144.08203125 254.56640625 C141.796875 256.24609375 141.796875 256.24609375 139.01953125 257.44140625 C138.10042969 257.85132813 137.18132812 258.26125 136.234375 258.68359375 C135.52410156 258.97492188 134.81382812 259.26625 134.08203125 259.56640625 C134.41203125 261.21640625 134.74203125 262.86640625 135.08203125 264.56640625 C135.74203125 264.56640625 136.40203125 264.56640625 137.08203125 264.56640625 C138.39937783 267.71340085 139.22895164 269.7950742 138.58203125 273.19140625 C136.61933082 276.29901527 134.18043588 277.65462467 131.08203125 279.56640625 C129.65887698 282.41271479 129.8496951 285.01883402 129.70703125 288.19140625 C129.23127726 295.56181732 127.60422603 301.06389281 124.08203125 307.56640625 C123.42203125 307.56640625 122.76203125 307.56640625 122.08203125 307.56640625 C121.83453125 308.16453125 121.58703125 308.76265625 121.33203125 309.37890625 C119.00519978 313.45086133 115.46294793 315.2284201 111.08203125 316.56640625 C107.51628185 316.83420009 103.96833262 316.79994166 100.39453125 316.75390625 C98.95110352 316.75293945 98.95110352 316.75293945 97.47851562 316.75195312 C90.36324793 316.70701459 90.36324793 316.70701459 88.08203125 315.56640625 C86.75088062 315.43730759 85.41682293 315.33733073 84.08203125 315.25390625 C79.44963924 314.79215656 75.66553757 313.36262062 71.41015625 311.53515625 C68.94797373 310.45460873 68.94797373 310.45460873 65.70703125 309.62890625 C50.68825373 305.22685077 35.97619832 297.34814794 23.08203125 288.56640625 C22.34726562 288.07914063 21.6125 287.591875 20.85546875 287.08984375 C19.22105728 285.97636024 17.64310301 284.78057318 16.08203125 283.56640625 C16.08203125 282.90640625 16.08203125 282.24640625 16.08203125 281.56640625 C15.5096875 281.31503906 14.93734375 281.06367187 14.34765625 280.8046875 C4.32060488 275.32438528 -3.06248327 263.45913344 -6.62109375 252.90234375 C-8.24499939 247.13937962 -8.36207639 241.58368131 -8.29296875 235.62890625 C-8.30457031 234.60216797 -8.31617188 233.57542969 -8.328125 232.51757812 C-8.32425781 231.53466797 -8.32039062 230.55175781 -8.31640625 229.5390625 C-8.31302246 228.65484619 -8.30963867 227.77062988 -8.30615234 226.85961914 C-7.83827884 224.09563434 -7.17943893 223.18847855 -4.91796875 221.56640625 C-1.73046875 221.37890625 -1.73046875 221.37890625 1.08203125 221.56640625 C1.08203125 222.22640625 1.08203125 222.88640625 1.08203125 223.56640625 C2.07203125 223.89640625 3.06203125 224.22640625 4.08203125 224.56640625 C4.09621094 225.78714844 4.11039063 227.00789062 4.125 228.265625 C4.438623 241.36972818 6.07418669 252.62415674 14.84765625 262.98046875 C16.08203125 264.56640625 16.08203125 264.56640625 17.08203125 267.56640625 C17.74203125 267.56640625 18.40203125 267.56640625 19.08203125 267.56640625 C20.70703125 268.94140625 20.70703125 268.94140625 22.08203125 270.56640625 C22.08203125 271.22640625 22.08203125 271.88640625 22.08203125 272.56640625 C22.6440625 272.83453125 23.20609375 273.10265625 23.78515625 273.37890625 C26.23753771 274.64680415 28.52130808 276.05612967 30.83203125 277.56640625 C31.63125 278.08203125 32.43046875 278.59765625 33.25390625 279.12890625 C33.8571875 279.60328125 34.46046875 280.07765625 35.08203125 280.56640625 C35.08203125 281.22640625 35.08203125 281.88640625 35.08203125 282.56640625 C36.17257812 282.72689453 36.17257812 282.72689453 37.28515625 282.890625 C40.29833465 283.6186695 42.23688867 284.70393677 44.83203125 286.37890625 C61.25652757 296.51778154 86.5046183 307.05975601 106.08203125 304.56640625 C110.63710927 302.37020792 112.96776843 300.12113245 115.08203125 295.56640625 C115.55939226 291.5947441 115.47066928 287.59840384 115.43359375 283.60351562 C115.54983355 277.4767095 116.68272358 274.86603172 121.08203125 270.56640625 C121.74203125 269.90640625 122.40203125 269.24640625 123.08203125 268.56640625 C123.08203125 267.57640625 123.08203125 266.58640625 123.08203125 265.56640625 C122.42203125 265.56640625 121.76203125 265.56640625 121.08203125 265.56640625 C118.94146692 263.14289377 117.34435843 260.5403635 116.08203125 257.56640625 C116.58203125 254.19140625 116.58203125 254.19140625 118.08203125 251.56640625 C121.38544948 249.36412743 124.26646514 248.58843289 128.08203125 247.56640625 C129.07203125 247.23640625 130.06203125 246.90640625 131.08203125 246.56640625 C130.64890625 245.80328125 130.21578125 245.04015625 129.76953125 244.25390625 C127.18374923 239.03261564 124.3812336 232.66866336 125.6953125 226.8515625 C127.08203125 224.56640625 127.08203125 224.56640625 129.09375 223.26171875 C133.38163006 222.26401594 137.50955409 222.35638805 141.89453125 222.44140625 C142.77818359 222.45042969 143.66183594 222.45945312 144.57226562 222.46875 C146.74230484 222.49220988 148.91220372 222.5280776 151.08203125 222.56640625 C146.99576622 210.52783357 146.99576622 210.52783357 142.0859375 198.8125 C138.99875498 191.90537958 136.44238285 184.75008504 134.08203125 177.56640625 C133.71722656 176.51582031 133.35242188 175.46523438 132.9765625 174.3828125 C129.26879996 163.23275403 129.26879996 163.23275403 131.08203125 157.56640625 C131.7471875 156.58285156 132.41234375 155.59929687 133.09765625 154.5859375 C135.94365774 149.70450457 135.75297677 144.65193959 135.83203125 139.12890625 C135.86167969 138.11119141 135.89132812 137.09347656 135.921875 136.04492188 C135.99208405 133.55250042 136.03937864 131.05945153 136.08203125 128.56640625 C130.14203125 128.89640625 124.20203125 129.22640625 118.08203125 129.56640625 C118.00855469 131.58894531 118.00855469 131.58894531 117.93359375 133.65234375 C117.85857068 135.41538584 117.78302266 137.17840564 117.70703125 138.94140625 C117.660625 140.27558594 117.660625 140.27558594 117.61328125 141.63671875 C117.55527344 142.91289063 117.55527344 142.91289063 117.49609375 144.21484375 C117.46467285 145.00036621 117.43325195 145.78588867 117.40087891 146.59521484 C117.08203125 148.56640625 117.08203125 148.56640625 115.08203125 150.56640625 C114.5175716 151.9029765 114.00498648 153.26165794 113.51953125 154.62890625 C111.51785106 159.79233128 109.08368108 164.66567553 106.51953125 169.56640625 C106.13144287 170.32058838 105.74335449 171.07477051 105.34350586 171.85180664 C104.96718018 172.56199951 104.59085449 173.27219238 104.203125 174.00390625 C103.69930298 174.96103516 103.69930298 174.96103516 103.18530273 175.9375 C102.08203125 177.56640625 102.08203125 177.56640625 99.08203125 179.56640625 C96.23750602 179.69251087 93.49720003 179.70116878 90.65771484 179.61547852 C88.87308608 179.57968801 87.0884481 179.54435522 85.30380249 179.50941467 C83.88207293 179.47676356 83.88207293 179.47676356 82.43162155 179.44345284 C77.38849229 179.33982653 72.34474038 179.308705 67.30078125 179.26757812 C60.89177215 179.21402466 54.48613804 179.1389879 48.07910156 178.96655273 C21.86512348 176.86484781 21.86512348 176.86484781 -1.06332397 186.74876404 C-3.65157482 189.67683578 -5.90923539 192.64441549 -7.86630249 196.02867126 C-8.21335236 196.53612381 -8.56040222 197.04357635 -8.91796875 197.56640625 C-9.57796875 197.56640625 -10.23796875 197.56640625 -10.91796875 197.56640625 C-11.18601318 198.16114746 -11.45405762 198.75588867 -11.73022461 199.36865234 C-12.92776574 201.58453421 -14.12115858 202.98720153 -15.921875 204.73046875 C-16.49744141 205.29507813 -17.07300781 205.8596875 -17.66601562 206.44140625 C-18.26478516 207.01890625 -18.86355469 207.59640625 -19.48046875 208.19140625 C-20.67146259 209.34800776 -21.8603688 210.50676403 -23.046875 211.66796875 C-23.5735376 212.17666504 -24.1002002 212.68536133 -24.64282227 213.20947266 C-27.69136799 216.45355022 -27.06208198 220.16627487 -27.05078125 224.34765625 C-27.05173798 225.11694458 -27.0526947 225.88623291 -27.05368042 226.67883301 C-27.05436129 228.30623456 -27.05251348 229.93363882 -27.04833984 231.56103516 C-27.04299025 234.05637698 -27.04828794 236.5515388 -27.0546875 239.046875 C-27.0540267 240.62630248 -27.0527455 242.20572985 -27.05078125 243.78515625 C-27.05280548 244.53414185 -27.05482971 245.28312744 -27.05691528 246.05480957 C-27.11322501 249.93830209 -27.11322501 249.93830209 -25.91796875 253.56640625 C-25.17546875 253.95828125 -24.43296875 254.35015625 -23.66796875 254.75390625 C-19.96350723 257.19548316 -17.65368263 259.43879398 -15.91796875 263.56640625 C-14.84559939 269.84857002 -14.72476115 275.72569295 -18.41796875 281.12890625 C-22.64334762 285.82046542 -27.55640429 288.66724926 -33.91796875 289.06640625 C-39.14393888 288.75839229 -43.62601706 286.68428566 -47.4609375 283.140625 C-51.05663152 279.05988135 -52.73333512 275.56044949 -53.23046875 270.19140625 C-52.70763756 264.12656448 -50.88494336 260.14881497 -46.35546875 256.12890625 C-43.24433951 253.56640625 -43.24433951 253.56640625 -40.91796875 253.56640625 C-40.9336792 252.35057861 -40.94938965 251.13475098 -40.96557617 249.88208008 C-41.01995676 245.36277922 -41.05434847 240.84350719 -41.08276367 236.32397461 C-41.09783176 234.36949802 -41.11828999 232.41505513 -41.14428711 230.46069336 C-41.1807574 227.64819002 -41.19771497 224.83613451 -41.2109375 222.0234375 C-41.22642136 221.15241898 -41.24190521 220.28140045 -41.25785828 219.38398743 C-41.25916272 214.66071302 -41.10240905 211.34989489 -37.91796875 207.56640625 C-37.25796875 207.56640625 -36.59796875 207.56640625 -35.91796875 207.56640625 C-35.91796875 206.90640625 -35.91796875 206.24640625 -35.91796875 205.56640625 C-34.54296875 203.94140625 -34.54296875 203.94140625 -32.91796875 202.56640625 C-32.25796875 202.56640625 -31.59796875 202.56640625 -30.91796875 202.56640625 C-30.91796875 201.90640625 -30.91796875 201.24640625 -30.91796875 200.56640625 C-29.54296875 198.94140625 -29.54296875 198.94140625 -27.91796875 197.56640625 C-27.25796875 197.56640625 -26.59796875 197.56640625 -25.91796875 197.56640625 C-25.91796875 196.90640625 -25.91796875 196.24640625 -25.91796875 195.56640625 C-24.59765625 194.3046875 -24.59765625 194.3046875 -22.79296875 192.87890625 C-19.57979835 190.22511369 -16.91292355 187.4001291 -14.27734375 184.1796875 C-12.89169191 182.53522138 -11.52549553 180.99675938 -9.91796875 179.56640625 C-9.25796875 179.56640625 -8.59796875 179.56640625 -7.91796875 179.56640625 C-7.91796875 178.90640625 -7.91796875 178.24640625 -7.91796875 177.56640625 C-6.30859375 175.9453125 -6.30859375 175.9453125 -4.16796875 174.12890625 C-3.12382813 173.23365234 -3.12382813 173.23365234 -2.05859375 172.3203125 C-0.99898437 171.45212891 -0.99898437 171.45212891 0.08203125 170.56640625 C0.62859375 170.01210938 1.17515625 169.4578125 1.73828125 168.88671875 C5.54038382 166.74486764 9.54114692 166.99070079 13.83203125 166.87890625 C18.41078125 166.72421875 18.41078125 166.72421875 23.08203125 166.56640625 C23.08203125 157.98640625 23.08203125 149.40640625 23.08203125 140.56640625 C21.10203125 139.57640625 21.10203125 139.57640625 19.08203125 138.56640625 C13.78659802 135.03956498 8.98811122 131.37856619 6.08203125 125.56640625 C5.97048987 122.55085215 5.91790301 119.55910875 5.9140625 116.54296875 C5.9090699 115.19638687 5.9090699 115.19638687 5.90397644 113.82260132 C5.89890829 111.92112745 5.89656808 110.01964468 5.89672852 108.11816406 C5.89454531 105.21013692 5.87639754 102.30249106 5.85742188 99.39453125 C5.85448728 97.54817838 5.85250293 95.70182371 5.8515625 93.85546875 C5.84437698 92.98556305 5.83719147 92.11565735 5.82978821 91.21939087 C5.83286484 90.40529755 5.83594147 89.59120422 5.83911133 88.75244141 C5.83768631 88.03899567 5.83626129 87.32554993 5.83479309 86.59048462 C6.13008628 84.1729915 6.75411425 82.60630551 8.08203125 80.56640625 C11.58418178 79.39902274 14.35650348 79.43689053 18.05078125 79.43359375 C18.72749878 79.43263702 19.40421631 79.4316803 20.10144043 79.43069458 C21.53035576 79.43001493 22.95927421 79.43185424 24.38818359 79.43603516 C26.57396385 79.4413865 28.75953863 79.43608297 30.9453125 79.4296875 C32.33463587 79.43034832 33.72395911 79.43162956 35.11328125 79.43359375 C36.37720703 79.43472168 37.64113281 79.43584961 38.94335938 79.43701172 C42.08203125 79.56640625 42.08203125 79.56640625 45.08203125 80.56640625 C45.08203125 81.22640625 45.08203125 81.88640625 45.08203125 82.56640625 C46.56703125 83.06140625 46.56703125 83.06140625 48.08203125 83.56640625 C48.08203125 84.22640625 48.08203125 84.88640625 48.08203125 85.56640625 C48.74203125 85.56640625 49.40203125 85.56640625 50.08203125 85.56640625 C50.08203125 86.22640625 50.08203125 86.88640625 50.08203125 87.56640625 C51.36787109 87.40591797 51.36787109 87.40591797 52.6796875 87.2421875 C61.29742926 86.33863622 65.65042165 86.54485425 72.83203125 91.44140625 C76.12468031 94.55113036 77.88492285 97.14758091 78.515625 101.6875 C78.52880729 112.87926394 78.52880729 112.87926394 74.08203125 117.56640625 C69.17260111 121.89138042 66.19194296 122.76742694 59.76953125 122.81640625 C57.79533203 122.85507812 57.79533203 122.85507812 55.78125 122.89453125 C51.88791998 122.54918835 50.11606824 121.96767617 47.08203125 119.56640625 C45.53515625 117.62890625 45.53515625 117.62890625 44.33203125 115.56640625 C43.9246875 114.88578125 43.51734375 114.20515625 43.09765625 113.50390625 C40.96541392 109.43624395 40.92310229 106.09588152 41.08203125 101.56640625 C41.35015625 100.86515625 41.61828125 100.16390625 41.89453125 99.44140625 C42.32354204 97.28072634 42.32354204 97.28072634 40.14453125 94.96875 C36.04490422 91.75284359 33.29537582 91.98219998 28.26953125 92.25390625 C25.56765625 92.35703125 22.86578125 92.46015625 20.08203125 92.56640625 C20.08203125 102.79640625 20.08203125 113.02640625 20.08203125 123.56640625 C20.74203125 123.56640625 21.40203125 123.56640625 22.08203125 123.56640625 C23.24417657 124.69437082 24.39912215 125.83074505 25.515625 127.00390625 C27.9654487 129.44762066 30.64858866 131.61481803 33.3125 133.8203125 C36.11174689 136.58248327 37.00156133 138.54757519 37.3125 142.484375 C37.23623931 148.28712038 37.00107577 153.934758 36.23828125 159.6875 C36.03622064 162.11727887 36.404801 164.23372426 37.08203125 166.56640625 C39.39203125 166.89640625 41.70203125 167.22640625 44.08203125 167.56640625 C43.92089844 166.58800781 43.75976562 165.60960937 43.59375 164.6015625 C42.99577902 160.39459852 42.89830376 156.2479812 42.89453125 152.00390625 C42.88228516 151.27494141 42.87003906 150.54597656 42.85742188 149.79492188 C42.84537707 145.33432979 43.34716632 141.75200973 45.08203125 137.56640625 C47.1667348 135.4817027 51.61267775 136.30818485 54.4921875 136.25 C55.23819214 136.23134888 55.98419678 136.21269775 56.75280762 136.19348145 C59.54992389 136.12498238 62.34724261 136.06496249 65.14453125 136.00390625 C71.39390625 135.85953125 77.64328125 135.71515625 84.08203125 135.56640625 C84.41203125 121.37640625 84.74203125 107.18640625 85.08203125 92.56640625 C83.76203125 91.90640625 82.44203125 91.24640625 81.08203125 90.56640625 C76.91779651 87.01157172 74.63729335 83.83701671 73.08203125 78.56640625 C72.61458549 71.91345723 74.20653792 67.43840968 78.31640625 62.2578125 C82.38130658 58.36378187 85.78446627 57.10468586 91.39453125 57.00390625 C97.05035045 57.12560564 100.2396617 58.18304743 104.49609375 61.86328125 C109.08203125 66.78808113 109.08203125 66.78808113 109.08203125 69.56640625 C115.02203125 69.07140625 115.02203125 69.07140625 121.08203125 68.56640625 C119.86170878 66.49821705 118.63130227 64.43723073 117.39453125 62.37890625 C117.05486328 61.80076172 116.71519531 61.22261719 116.36523438 60.62695312 C114.00964393 56.7303222 111.3410276 53.7797424 108.08203125 50.56640625 C108.08203125 49.90640625 108.08203125 49.24640625 108.08203125 48.56640625 C107.09203125 48.23640625 106.10203125 47.90640625 105.08203125 47.56640625 C105.08203125 46.90640625 105.08203125 46.24640625 105.08203125 45.56640625 C104.42203125 45.56640625 103.76203125 45.56640625 103.08203125 45.56640625 C103.08203125 44.90640625 103.08203125 44.24640625 103.08203125 43.56640625 C102.09203125 43.23640625 101.10203125 42.90640625 100.08203125 42.56640625 C100.08203125 41.90640625 100.08203125 41.24640625 100.08203125 40.56640625 C99.33566406 40.30085938 98.58929687 40.0353125 97.8203125 39.76171875 C95.11851764 38.58233326 93.47009699 37.36858195 91.26953125 35.44140625 C76.76410895 23.85637679 57.20805576 17.36050717 39.09375 15.03125 C36.08203125 14.56640625 36.08203125 14.56640625 34.08203125 13.56640625 C31.45822812 13.40979742 28.85678273 13.30811545 26.23046875 13.25 C25.45643707 13.2292189 24.6824054 13.20843781 23.88491821 13.18702698 C21.40904733 13.12157177 18.93306923 13.06266538 16.45703125 13.00390625 C14.77993677 12.96071718 13.10285318 12.91710277 11.42578125 12.87304688 C7.31130817 12.76589454 3.19672711 12.6646158 -0.91796875 12.56640625 C-0.87376762 16.90878647 -0.80388807 21.24977372 -0.71044922 25.59130859 C-0.68226787 27.06742821 -0.66103909 28.54369794 -0.64697266 30.02001953 C-0.62550177 32.14563682 -0.57883832 34.26945504 -0.52734375 36.39453125 C-0.50639648 37.67231445 -0.48544922 38.95009766 -0.46386719 40.26660156 C0.1675842 44.08355014 1.20840037 45.11044596 4.08203125 47.56640625 C4.08203125 48.22640625 4.08203125 48.88640625 4.08203125 49.56640625 C5.07203125 49.89640625 6.06203125 50.22640625 7.08203125 50.56640625 C7.08203125 51.22640625 7.08203125 51.88640625 7.08203125 52.56640625 C7.74203125 52.56640625 8.40203125 52.56640625 9.08203125 52.56640625 C9.08203125 53.22640625 9.08203125 53.88640625 9.08203125 54.56640625 C10.07203125 54.89640625 11.06203125 55.22640625 12.08203125 55.56640625 C12.08203125 56.22640625 12.08203125 56.88640625 12.08203125 57.56640625 C15.25713107 58.62477286 17.72485508 58.76884414 21.0625 58.8828125 C22.22587891 58.92470703 23.38925781 58.96660156 24.58789062 59.00976562 C25.80283203 59.04908203 27.01777344 59.08839844 28.26953125 59.12890625 C29.49607422 59.17208984 30.72261719 59.21527344 31.98632812 59.25976562 C35.01811506 59.36593715 38.0499844 59.46798577 41.08203125 59.56640625 C41.54609375 58.63828125 41.54609375 58.63828125 42.01953125 57.69140625 C42.70703125 56.31640625 43.39453125 54.94140625 44.08203125 53.56640625 C44.0502914 51.31576216 43.98231474 49.06556172 43.89453125 46.81640625 C43.85189323 40.85926559 43.98892444 37.88690789 48.08203125 33.56640625 C48.68015625 32.82390625 49.27828125 32.08140625 49.89453125 31.31640625 C54.11505194 27.93998969 58.45665701 27.33592275 63.70703125 27.81640625 C70.27919466 28.81724332 73.61400783 30.56803515 77.7890625 35.7734375 C81.03458463 40.27402559 81.55638389 44.06391563 81.08203125 49.56640625 C80.25159332 52.02891871 79.22973203 54.22318382 78.08203125 56.56640625 C77.42203125 56.56640625 76.76203125 56.56640625 76.08203125 56.56640625 C75.74171875 57.46359375 75.74171875 57.46359375 75.39453125 58.37890625 C73.64952107 61.28725655 72.15191156 62.10534022 69.08203125 63.56640625 C65.6461631 63.8977844 62.32170247 64.00271922 58.87695312 64.00585938 C55.29594627 64.10337036 53.47806902 64.22647927 50.7109375 66.6015625 C50.17339844 67.24996094 49.63585937 67.89835937 49.08203125 68.56640625 C48.42203125 68.56640625 47.76203125 68.56640625 47.08203125 68.56640625 C47.08203125 69.22640625 47.08203125 69.88640625 47.08203125 70.56640625 C43.90912412 72.15285982 40.49377741 71.68718838 37.01171875 71.6640625 C36.21549103 71.66264755 35.41926331 71.6612326 34.59890747 71.65977478 C32.05157745 71.6541697 29.50433478 71.64161639 26.95703125 71.62890625 C25.2317721 71.6238919 23.50651158 71.61932888 21.78125 71.61523438 C17.54814334 71.60419862 13.31510211 71.58693061 9.08203125 71.56640625 C8.75203125 70.57640625 8.42203125 69.58640625 8.08203125 68.56640625 C7.24671875 68.16421875 7.24671875 68.16421875 6.39453125 67.75390625 C3.04438962 66.03356325 0.45777618 63.48065337 -1.91796875 60.56640625 C-1.91796875 59.90640625 -1.91796875 59.24640625 -1.91796875 58.56640625 C-2.90796875 58.23640625 -3.89796875 57.90640625 -4.91796875 57.56640625 C-4.91796875 56.90640625 -4.91796875 56.24640625 -4.91796875 55.56640625 C-5.55734375 55.29828125 -6.19671875 55.03015625 -6.85546875 54.75390625 C-8.91796875 53.56640625 -8.91796875 53.56640625 -9.91796875 50.56640625 C-10.57796875 50.56640625 -11.23796875 50.56640625 -11.91796875 50.56640625 C-13.06703252 48.26827871 -13.06207251 46.92080878 -13.0949707 44.36376953 C-13.11422356 43.06199265 -13.11422356 43.06199265 -13.13386536 41.73391724 C-13.14125229 40.79434174 -13.14863922 39.85476624 -13.15625 38.88671875 C-13.16432175 37.92240936 -13.17239349 36.95809998 -13.18070984 35.96456909 C-13.19455355 33.92187297 -13.20527442 31.87915369 -13.21313477 29.83642578 C-13.23036176 26.71081844 -13.27424696 23.58626484 -13.31835938 20.4609375 C-13.32848492 18.47787237 -13.33700146 16.49479824 -13.34375 14.51171875 C-13.36125809 13.57619171 -13.37876617 12.64066467 -13.39680481 11.67678833 C-13.38408209 7.87525783 -13.34683224 5.32130007 -11.44873047 1.98022461 C-7.6669869 -0.13245887 -4.26908364 -0.02401206 0 0 Z M58.08203125 40.56640625 C55.7666553 43.3834882 55.7666553 43.3834882 56.26953125 46.56640625 C57.24781903 50.26999108 57.24781903 50.26999108 60.08203125 52.56640625 C63.21341684 52.48812161 64.62475529 51.97795462 66.95703125 49.87890625 C68.47734773 46.75381126 67.96159167 44.86475781 67.08203125 41.56640625 C65.19074783 39.67512283 62.51135399 40.32972105 59.9921875 40.23828125 C59.36183594 40.3465625 58.73148438 40.45484375 58.08203125 40.56640625 Z M88.33203125 69.50390625 C85.91525502 71.290344 85.91525502 71.290344 85.765625 73.55078125 C85.76918524 75.5587582 85.91799285 77.56513777 86.08203125 79.56640625 C88.7807448 81.37486575 88.7807448 81.37486575 92.08203125 82.56640625 C94.99281369 81.73660917 94.99281369 81.73660917 97.08203125 79.56640625 C98.24393499 76.24668127 98.20586974 74.93792171 97.08203125 71.56640625 C96.42203125 71.56640625 95.76203125 71.56640625 95.08203125 71.56640625 C95.08203125 70.90640625 95.08203125 70.24640625 95.08203125 69.56640625 C92.3263483 68.4437206 91.1967159 68.52730921 88.33203125 69.50390625 Z M106.3515625 84.79296875 C105.89100464 85.67202881 105.89100464 85.67202881 105.42114258 86.56884766 C104.08203125 88.56640625 104.08203125 88.56640625 100.98608398 90.59472656 C98.85434465 92.31862748 98.16360974 93.21907307 97.52949524 95.91891479 C97.32398339 98.92232957 97.30395111 101.87653448 97.34765625 104.88671875 C97.33869324 105.98233124 97.32973022 107.07794373 97.32049561 108.20675659 C97.29639668 111.70219027 97.31232104 115.19596827 97.33203125 118.69140625 C97.33059063 122.1935491 97.32075906 125.6953937 97.30072021 129.19747925 C97.29049225 131.37545516 97.29228563 133.5535269 97.30718994 135.73147583 C97.3066864 136.71614838 97.30618286 137.70082092 97.30566406 138.71533203 C97.31043762 139.5818338 97.31521118 140.44833557 97.32012939 141.34109497 C97.08203125 143.56640625 97.08203125 143.56640625 95.08203125 146.56640625 C91.34782528 147.81114157 87.80837887 147.7985041 83.9140625 147.8828125 C83.11924973 147.9035936 82.32443695 147.92437469 81.50553894 147.94578552 C78.96862362 148.01112712 76.43160552 148.07009433 73.89453125 148.12890625 C72.17381753 148.17210611 70.45311417 148.21572088 68.73242188 148.25976562 C64.51572878 148.36757302 60.29895674 148.46676045 56.08203125 148.56640625 C56.08203125 154.83640625 56.08203125 161.10640625 56.08203125 167.56640625 C68.29203125 167.56640625 80.50203125 167.56640625 93.08203125 167.56640625 C94.69078125 164.51390625 96.29953125 161.46140625 97.95703125 158.31640625 C98.71282471 156.88312988 98.71282471 156.88312988 99.48388672 155.42089844 C100.08547607 154.27862793 100.08547607 154.27862793 100.69921875 153.11328125 C101.10769043 152.33823242 101.51616211 151.56318359 101.93701172 150.76464844 C102.31486816 150.03922852 102.69272461 149.31380859 103.08203125 148.56640625 C103.45263672 147.93798828 103.82324219 147.30957031 104.20507812 146.66210938 C105.36750827 143.88418611 105.40767881 141.49438911 105.49609375 138.48828125 C105.53476562 137.328125 105.5734375 136.16796875 105.61328125 134.97265625 C105.6596875 133.1628125 105.6596875 133.1628125 105.70703125 131.31640625 C105.74570312 130.094375 105.784375 128.87234375 105.82421875 127.61328125 C105.91845233 124.59780685 106.0040658 121.58233797 106.08203125 118.56640625 C106.74203125 118.56640625 107.40203125 118.56640625 108.08203125 118.56640625 C108.08203125 117.90640625 108.08203125 117.24640625 108.08203125 116.56640625 C108.89470459 116.57164307 109.70737793 116.57687988 110.54467773 116.58227539 C114.20295447 116.60297619 117.86121892 116.61604428 121.51953125 116.62890625 C122.79892578 116.63728516 124.07832031 116.64566406 125.39648438 116.65429688 C126.61142578 116.65751953 127.82636719 116.66074219 129.078125 116.6640625 C130.20404053 116.66929932 131.32995605 116.67453613 132.48999023 116.67993164 C135.01173996 116.86186073 135.01173996 116.86186073 136.08203125 115.56640625 C136.85491768 108.1746116 135.35920339 101.65099349 133.20703125 94.62890625 C132.93761719 93.69755859 132.66820312 92.76621094 132.390625 91.80664062 C131.25075079 87.95608992 130.32729141 84.9342965 128.08203125 81.56640625 C125.02655483 80.83694033 121.90181164 80.96469458 118.76953125 80.94140625 C117.91423828 80.89628906 117.05894531 80.85117187 116.17773438 80.8046875 C111.60789445 80.75513075 109.01951241 80.86091623 106.3515625 84.79296875 Z M54.08203125 101.25390625 C52.79466078 104.23095045 52.92216912 105.5507647 54.08203125 108.56640625 C55.6781913 110.57606399 55.6781913 110.57606399 58.08203125 111.56640625 C61.27438397 111.34066734 61.27438397 111.34066734 64.08203125 110.56640625 C65.61091871 107.10629252 66.33872613 105.35360389 65.14453125 101.69140625 C63.15784391 99.22076271 63.15784391 99.22076271 59.58203125 99.00390625 C56.10298089 99.25460926 56.10298089 99.25460926 54.08203125 101.25390625 Z M-38.23046875 265.12890625 C-40.28473639 267.57817987 -40.28473639 267.57817987 -39.79296875 271.25390625 C-39.50421875 272.34703125 -39.21546875 273.44015625 -38.91796875 274.56640625 C-36.11926848 275.96575638 -34.01298083 275.8190603 -30.91796875 275.56640625 C-28.93767193 274.50295573 -28.93767193 274.50295573 -27.91796875 272.56640625 C-27.3344637 270.1093125 -27.3344637 270.1093125 -27.91796875 267.56640625 C-29.56416224 265.1701247 -29.56416224 265.1701247 -31.91796875 263.56640625 C-35.8307243 263.19316798 -35.8307243 263.19316798 -38.23046875 265.12890625 Z " fill="#030303" transform="translate(633.91796875,387.43359375)"/>
<path d="M0 0 C4.5513702 2.395458 8.97047457 6.21026433 10.5859375 11.23046875 C11.7929718 17.79525734 11.35470604 23.44350953 7.96875 29.3125 C6.07139363 31.3110487 4.2502993 32.71056113 1.96875 34.3125 C1.30875 34.3125 0.64875 34.3125 -0.03125 34.3125 C-0.10556132 39.49028402 -0.15992808 44.66775569 -0.19604492 49.84594727 C-0.21110553 51.60641896 -0.23155826 53.3668533 -0.25756836 55.12719727 C-0.29407229 57.66171503 -0.31100354 60.19573552 -0.32421875 62.73046875 C-0.33970261 63.51399216 -0.35518646 64.29751556 -0.37113953 65.1047821 C-0.37255169 69.71901446 0.11516942 72.64584788 2.96875 76.3125 C5.59008625 78.7869637 5.59008625 78.7869637 8.53125 81.0625 C9.50191406 81.84109375 10.47257813 82.6196875 11.47265625 83.421875 C13.79904461 85.3041254 13.79904461 85.3041254 15.96875 86.3125 C15.96430878 85.73700409 15.95986755 85.16150818 15.95529175 84.568573 C15.91096493 78.56624846 15.88084475 72.56397061 15.85888672 66.56152344 C15.84884368 64.32289745 15.83520669 62.08428452 15.81787109 59.84570312 C15.79354843 56.62366505 15.78224974 53.40180079 15.7734375 50.1796875 C15.76311493 49.18258759 15.75279236 48.18548767 15.74215698 47.15817261 C15.74135913 42.19066622 15.80612246 37.89896874 17.96875 33.3125 C20.46875 31.625 20.46875 31.625 23.96875 31.3125 C27.57587912 32.4776655 30.71059697 34.39859124 33.96875 36.3125 C35.32671918 37.09783566 36.68480018 37.88297798 38.04296875 38.66796875 C41.71257215 40.80056549 45.35832168 42.97121057 49.00097656 45.14941406 C50.71376119 46.16178453 52.4452591 47.14236278 54.1796875 48.1171875 C55.05882812 48.61476563 55.93796875 49.11234375 56.84375 49.625 C57.58367187 50.03363281 58.32359375 50.44226563 59.0859375 50.86328125 C61.55841989 52.76637454 62.66474377 54.47699735 63.96875 57.3125 C64.26171875 60.42578125 64.26171875 60.42578125 64.15625 63.625 C64.11564453 65.22794922 64.11564453 65.22794922 64.07421875 66.86328125 C64.03941406 67.67152344 64.00460937 68.47976563 63.96875 69.3125 C64.62875 69.3125 65.28875 69.3125 65.96875 69.3125 C65.96875 69.9725 65.96875 70.6325 65.96875 71.3125 C66.95875 71.3125 67.94875 71.3125 68.96875 71.3125 C68.96875 71.9725 68.96875 72.6325 68.96875 73.3125 C70.45375 73.8075 70.45375 73.8075 71.96875 74.3125 C75.14662905 79.26531485 76.82214497 84.44540961 75.96875 90.3125 C73.96193599 96.18637697 71.05525733 99.81552621 65.96875 103.3125 C60.65868581 105.05676225 54.51949104 104.99269761 49.15625 103.5625 C44.54054913 100.92495664 41.39641142 98.50885185 39.4765625 93.3671875 C38.15606928 88.02426877 37.97549604 82.54181375 40.53125 77.5625 C42.2297492 74.9414347 44.18960906 73.26812155 46.65625 71.375 C49.56421689 69.08217995 50.46496492 67.63001781 50.90625 63.9375 C50.926875 62.74125 50.9475 61.545 50.96875 60.3125 C50.42992187 60.04308594 49.89109375 59.77367187 49.3359375 59.49609375 C42.546875 56.1015625 35.7578125 52.70703125 28.96875 49.3125 C28.94527267 59.03339422 28.92765892 68.75427824 28.91693783 78.47519493 C28.9117846 82.99209999 28.90483006 87.50898524 28.89331055 92.02587891 C28.86438843 103.78858021 28.87956343 115.55007255 28.96875 127.3125 C28.97325794 128.01953568 28.97776588 128.72657135 28.98241043 129.45503235 C29.01225364 133.77602138 29.08580141 138.09421017 29.1875 142.4140625 C29.19663925 143.43930023 29.2057785 144.46453796 29.2151947 145.52084351 C29.4188069 151.8639089 30.52724577 155.34565244 34.53125 160.3125 C35.99419451 161.66361256 37.46837298 163.00308005 38.96875 164.3125 C38.96875 164.9725 38.96875 165.6325 38.96875 166.3125 C39.62875 166.3125 40.28875 166.3125 40.96875 166.3125 C43.87632148 172.01597919 44.36256049 176.47769518 44.26953125 182.82421875 C44.27716653 184.65169636 44.28565524 186.47917056 44.29492188 188.30664062 C44.29270432 191.16408646 44.28105011 194.02085389 44.25366211 196.87817383 C44.23298791 199.65255646 44.24893303 202.42487904 44.26953125 205.19921875 C44.25102615 206.05343918 44.23252106 206.90765961 44.2134552 207.7877655 C44.24226927 210.11386679 44.32082358 212.07730963 44.96875 214.3125 C47.79047305 216.84026907 47.79047305 216.84026907 50.96875 218.3125 C55.55780852 224.2719897 56.79528511 229.95294077 55.96875 237.3125 C53.30890136 242.44220809 49.75260192 246.12326539 44.96875 249.3125 C38.01144889 250.98440957 32.41605986 250.07282844 26.03125 246.8125 C25.0103125 246.07 25.0103125 246.07 23.96875 245.3125 C23.96875 244.6525 23.96875 243.9925 23.96875 243.3125 C23.30875 243.3125 22.64875 243.3125 21.96875 243.3125 C18.41286201 237.83050602 18.23735587 232.64187231 18.96875 226.3125 C20.46875 222.625 20.46875 222.625 21.96875 220.3125 C22.62875 220.3125 23.28875 220.3125 23.96875 220.3125 C24.29875 219.3225 24.62875 218.3325 24.96875 217.3125 C29.30208333 214.3125 29.30208333 214.3125 31.96875 214.3125 C31.99895979 208.90380042 31.98315388 203.49783911 31.92602539 198.08935547 C31.91294413 196.25248787 31.91209764 194.41548843 31.92407227 192.57861328 C32.48925186 180.54540748 32.48925186 180.54540748 27.41015625 170.1875 C26.26578021 169.22587329 25.11946962 168.26652663 23.96875 167.3125 C23.96875 166.6525 23.96875 165.9925 23.96875 165.3125 C23.30875 165.3125 22.64875 165.3125 21.96875 165.3125 C18.96875 161.85096154 18.96875 161.85096154 18.96875 159.3125 C18.30875 159.3125 17.64875 159.3125 16.96875 159.3125 C16.05038453 156.19585399 15.85922695 153.43932184 15.89038086 150.19604492 C15.89625717 149.17786179 15.90213348 148.15967865 15.90818787 147.11064148 C15.91657181 146.01580948 15.92495575 144.92097748 15.93359375 143.79296875 C15.9298809 141.46809454 15.92395223 139.143223 15.91601562 136.81835938 C15.90545687 133.15741842 15.90626647 129.49842595 15.94458008 125.83764648 C15.9777279 122.30084574 15.96010028 118.7672624 15.93359375 115.23046875 C15.95614731 114.14170944 15.97870087 113.05295013 16.00193787 111.93119812 C15.93886512 106.08504125 15.93886512 106.08504125 13.21231079 101.08592224 C11.20889013 99.31380579 9.19654778 97.78802537 6.96875 96.3125 C6.1334375 95.67699219 5.298125 95.04148437 4.4375 94.38671875 C3.10494463 93.44811328 1.77158735 92.51064545 0.4375 91.57421875 C-0.28953125 90.94966797 -0.28953125 90.94966797 -1.03125 90.3125 C-1.03125 89.6525 -1.03125 88.9925 -1.03125 88.3125 C-2.1140625 87.94125 -2.1140625 87.94125 -3.21875 87.5625 C-7.05548959 85.8572824 -10.08983706 84.00700284 -12.16748047 80.26733398 C-13.38732606 76.09441392 -13.2310485 72.17024563 -13.1640625 67.84765625 C-13.16486897 65.9772119 -13.16753024 64.1067676 -13.171875 62.23632812 C-13.16990925 59.30171458 -13.15615778 56.36909226 -13.11035156 53.43481445 C-13.07123004 50.5920636 -13.082442 47.75303479 -13.1015625 44.91015625 C-13.06302658 43.60208763 -13.06302658 43.60208763 -13.02371216 42.26759338 C-13.08229367 38.54202322 -13.12389819 36.23989059 -15.80413818 33.50045776 C-17.92207506 31.90321424 -17.92207506 31.90321424 -20.11862183 30.61106873 C-23.31380503 28.44171608 -24.04515375 25.94872993 -25.03125 22.3125 C-25.77564606 16.32542887 -25.09474736 11.6225621 -22.03125 6.3125 C-15.98195098 -0.07569532 -8.5916978 -2.90795925 0 0 Z M-11.90625 12.4375 C-13.55979531 15.19340884 -13.42490568 17.16325452 -13.03125 20.3125 C-12.03125 22.3125 -12.03125 22.3125 -10.03125 23.3125 C-6.88200452 23.70615568 -4.91215884 23.84104531 -2.15625 22.1875 C-0.5630401 19.53215017 -0.82910968 17.34460482 -1.03125 14.3125 C-2.02125 13.9825 -3.01125 13.6525 -4.03125 13.3125 C-4.03125 12.6525 -4.03125 11.9925 -4.03125 11.3125 C-8.15712749 10.97732489 -8.15712749 10.97732489 -11.90625 12.4375 Z M52.09375 81.4375 C50.44020469 84.19340884 50.57509432 86.16325452 50.96875 89.3125 C51.96875 91.3125 51.96875 91.3125 53.96875 92.3125 C57.11799548 92.70615568 59.08784116 92.84104531 61.84375 91.1875 C63.49729531 88.43159116 63.36240568 86.46174548 62.96875 83.3125 C61.96875 81.3125 61.96875 81.3125 59.96875 80.3125 C56.81950452 79.91884432 54.84965884 79.78395469 52.09375 81.4375 Z M31.96875 228 C30.70548789 230.92129364 30.94858748 232.33048647 31.96875 235.3125 C33.90949886 237.66136432 33.90949886 237.66136432 37.40625 237.75 C41.0428838 237.67444739 41.0428838 237.67444739 43.09375 235.1875 C44.32615548 232.21003454 44.32615548 232.21003454 42.65625 229 C42.099375 228.113125 41.5425 227.22625 40.96875 226.3125 C36.08263708 225.78471004 36.08263708 225.78471004 31.96875 228 Z " fill="#030303" transform="translate(523.03125,388.6875)"/>
<path d="M0 0 C3.92912723 3.92912723 3.16156557 9.10942321 3.2109375 14.37890625 C3.23898902 16.03842161 3.26765335 17.69792671 3.296875 19.35742188 C3.33823373 21.96671443 3.37513382 24.57581163 3.40136719 27.18530273 C3.42891532 29.70856879 3.4747625 32.2309713 3.5234375 34.75390625 C3.52669037 35.53520401 3.52994324 36.31650177 3.53329468 37.12147522 C3.55789814 41.32326628 3.55789814 41.32326628 5.52978516 44.89038086 C6.01495605 45.25655518 6.50012695 45.62272949 7 46 C7 46.66 7 47.32 7 48 C7.55300781 48.226875 8.10601563 48.45375 8.67578125 48.6875 C11.67950093 50.38371817 13.77063332 52.5438637 16.1875 55 C17.06792969 55.886875 17.94835937 56.77375 18.85546875 57.6875 C22.38583812 61.49438281 22.20651349 64.57117132 22.31982422 69.5480957 C22.34085205 70.32729874 22.36187988 71.10650177 22.38354492 71.90931702 C22.56703379 79.126782 22.67276063 86.34586798 22.75568962 93.56512165 C22.81214727 98.41008494 22.89333123 103.25170459 23.03564453 108.0949707 C23.17289235 112.78554257 23.24466028 117.47309393 23.27234268 122.16554832 C23.29366941 123.94431255 23.33740497 125.72296889 23.405056 127.50057411 C23.93458134 142.09559342 23.93458134 142.09559342 19.12261963 147.97177124 C15.99122774 151.30165405 12.57071461 154.15352197 9 157 C8.4825012 157.54581883 7.9650024 158.09163767 7.43182182 158.65399647 C6 160 6 160 4 160 C3.79439453 160.53012695 3.58878906 161.06025391 3.37695312 161.60644531 C1.42575616 164.99820684 -1.27544382 167.56050587 -4.03125 170.296875 C-4.62296997 170.89050842 -5.21468994 171.48414185 -5.82434082 172.09576416 C-7.07265581 173.34543718 -8.32348823 174.59259992 -9.57666016 175.83740234 C-11.50007997 177.75007952 -13.41256099 179.67323119 -15.32421875 181.59765625 C-16.53842139 182.81053798 -17.75324393 184.02279952 -18.96875 185.234375 C-19.54274536 185.81241882 -20.11674072 186.39046265 -20.70812988 186.98602295 C-24.77006566 191 -24.77006566 191 -27 191 C-27 191.66 -27 192.32 -27 193 C-29.25 193.6875 -29.25 193.6875 -32 194 C-35.12056696 192.26635169 -35.85331791 191.44004627 -37 188 C-37.11448477 186.42038841 -37.17622932 184.83666148 -37.20532227 183.25317383 C-37.22526749 182.29240433 -37.24521271 181.33163483 -37.26576233 180.3417511 C-37.28247482 179.30729355 -37.29918732 178.272836 -37.31640625 177.20703125 C-37.33718735 176.14586594 -37.35796844 175.08470062 -37.37937927 173.99137878 C-37.44481238 170.59848563 -37.50373093 167.2055145 -37.5625 163.8125 C-37.60569114 161.51366378 -37.64930562 159.21483547 -37.69335938 156.91601562 C-37.8004874 151.2774264 -37.90226551 145.63875944 -38 140 C-38.76828125 139.72929688 -39.5365625 139.45859375 -40.328125 139.1796875 C-44.01033526 137.5539163 -45.67195424 135.23339689 -48 132 C-49.81391126 126.41088593 -49.54598225 120.81994083 -47.875 115.25 C-45.03884829 110.3340037 -41.26602133 107.22755633 -36 105 C-29.60588648 103.96693744 -24.93436055 104.86806106 -19.6875 108.64453125 C-14.28245897 112.98608041 -12.40120414 116.38916278 -11.625 123.375 C-12.24867124 129.40382199 -14.52442489 134.00832454 -19.125 138 C-22 140 -22 140 -24 140 C-23.67 149.9 -23.34 159.8 -23 170 C-22.01 169.67 -21.02 169.34 -20 169 C-20 168.34 -20 167.68 -20 167 C-19.34 167 -18.68 167 -18 167 C-17.67 166.01 -17.34 165.02 -17 164 C-16.34 164 -15.68 164 -15 164 C-14.731875 163.360625 -14.46375 162.72125 -14.1875 162.0625 C-13 160 -13 160 -10 159 C-9.67 158.34 -9.34 157.68 -9 157 C-8 155 -8 155 -5 154 C-5 153.34 -5 152.68 -5 152 C-0.69767442 147.23255814 -0.69767442 147.23255814 3 146 C3.33 145.34 3.66 144.68 4 144 C5 142 5 142 8 141 C9.14211013 137.5736696 9.13398801 134.92718845 9.14526367 131.31298828 C9.14862228 130.63783173 9.1519809 129.96267517 9.15544128 129.26705933 C9.1649411 127.03479167 9.16689396 124.80259911 9.16796875 122.5703125 C9.17118219 121.01716074 9.17454633 119.46400928 9.17805481 117.91085815 C9.18404378 114.65426939 9.18589497 111.39770716 9.18530273 108.14111328 C9.18520117 103.972612 9.19884868 99.80428127 9.21607494 95.63582039 C9.22720599 92.42730939 9.2292216 89.21883946 9.22869301 86.01031113 C9.22987164 84.47375781 9.23428685 82.93720338 9.24202538 81.4006691 C9.25184691 79.24892568 9.24893878 77.09755041 9.24291992 74.94580078 C9.24434494 73.72240997 9.24576996 72.49901917 9.24723816 71.23855591 C9.00522578 68.06845208 8.35962325 65.85213107 7 63 C6.34 63 5.68 63 5 63 C5 62.34 5 61.68 5 61 C4.01 60.67 3.02 60.34 2 60 C2 59.34 2 58.68 2 58 C1.34 58 0.68 58 0 58 C0 57.34 0 56.68 0 56 C-0.89079002 55.59741974 -0.89079002 55.59741974 -1.79957581 55.18670654 C-5.47617969 53.20388437 -7.89171009 50.5973937 -10 47 C-10.8035901 43.57759508 -10.77374963 40.29934413 -10.69140625 36.796875 C-10.69003159 35.83726868 -10.68865692 34.87766235 -10.6872406 33.88897705 C-10.67821735 31.8718342 -10.65469053 29.85470952 -10.61743164 27.83789062 C-10.56241719 24.74534494 -10.55590467 21.6554856 -10.55664062 18.5625 C-10.54190158 16.59893497 -10.52441942 14.6353882 -10.50390625 12.671875 C-10.49889854 11.28437042 -10.49889854 11.28437042 -10.49378967 9.86883545 C-10.46508034 8.58169647 -10.46508034 8.58169647 -10.43579102 7.26855469 C-10.42435562 6.51467468 -10.41292023 5.76079468 -10.40113831 4.98406982 C-9.2540655 -0.68946596 -4.97930651 -0.45266423 0 0 Z M-35.375 118.5625 C-37.33513137 121.01444532 -37.33513137 121.01444532 -37 124.625 C-36.34057342 128.0019162 -36.34057342 128.0019162 -34.1875 129.5 C-30.85001006 130.26285484 -29.05579703 129.6553223 -26.1875 127.875 C-24.29299115 124.88367023 -25.30907423 122.32900597 -26 119 C-26.66 119 -27.32 119 -28 119 C-28 118.34 -28 117.68 -28 117 C-31.20863349 116.64348517 -32.64001006 116.76316451 -35.375 118.5625 Z " fill="#030303" transform="translate(611,401)"/>
<path d="M0 0 C1.51400391 0.01740234 1.51400391 0.01740234 3.05859375 0.03515625 C4.07050781 0.04417969 5.08242188 0.05320312 6.125 0.0625 C7.29869141 0.07990234 7.29869141 0.07990234 8.49609375 0.09765625 C13.75162987 9.8011402 18.7739918 19.56606491 23.40014648 29.5871582 C25.04691404 33.1346002 26.73164566 36.55476376 28.7578125 39.90234375 C30.49609375 43.09765625 30.49609375 43.09765625 30.49609375 47.09765625 C31.48609375 47.42765625 32.47609375 47.75765625 33.49609375 48.09765625 C35.90307075 43.39256051 38.24303618 38.65919945 40.48046875 33.87109375 C45.82768088 22.43004113 51.526651 11.2264921 57.49609375 0.09765625 C59.30851427 0.07078346 61.12104608 0.0513191 62.93359375 0.03515625 C63.94292969 0.02355469 64.95226562 0.01195312 65.9921875 0 C68.49609375 0.09765625 68.49609375 0.09765625 69.49609375 1.09765625 C69.5905271 3.3981946 69.61351503 5.70167798 69.60961914 8.00415039 C69.60976517 8.72606064 69.60991119 9.44797089 69.61006165 10.1917572 C69.60936244 12.58880572 69.6015697 14.98577748 69.59375 17.3828125 C69.59188585 19.04048114 69.59046193 20.69815032 69.58946228 22.3558197 C69.58563687 26.72719839 69.5758064 31.09854406 69.5647583 35.46990967 C69.55454467 39.92720086 69.54996476 44.38449736 69.54492188 48.84179688 C69.53418415 57.59376518 69.51710746 66.34570661 69.49609375 75.09765625 C67.49609375 76.09765625 67.49609375 76.09765625 57.49609375 75.09765625 C57.16609375 58.59765625 56.83609375 42.09765625 56.49609375 25.09765625 C53.52609375 31.36765625 50.55609375 37.63765625 47.49609375 44.09765625 C45.84353552 47.44033085 44.18203628 50.77260293 42.49609375 54.09765625 C42.04234375 55.01546875 41.58859375 55.93328125 41.12109375 56.87890625 C40.66734375 57.79671875 40.21359375 58.71453125 39.74609375 59.66015625 C39.33875 60.48644531 38.93140625 61.31273437 38.51171875 62.1640625 C37.49609375 64.09765625 37.49609375 64.09765625 36.49609375 65.09765625 C33.12109375 65.41015625 33.12109375 65.41015625 29.49609375 65.09765625 C26.74798339 62.64398629 25.78511944 59.43270504 24.36132812 56.08862305 C22.85402128 52.62020113 21.23645947 49.20426966 19.62109375 45.78515625 C19.27175781 45.04402588 18.92242187 44.30289551 18.5625 43.53930664 C15.95180915 38.01868294 13.26495709 32.54077147 10.49609375 27.09765625 C9.74944169 39.77740815 9.39079413 52.39201413 9.53320312 65.09545898 C9.54158203 66.11067627 9.54996094 67.12589355 9.55859375 68.171875 C9.57019531 69.07510498 9.58179688 69.97833496 9.59375 70.90893555 C9.49609375 73.09765625 9.49609375 73.09765625 8.49609375 75.09765625 C6.53515625 75.546875 6.53515625 75.546875 4.12109375 75.78515625 C3.32960938 75.87152344 2.538125 75.95789063 1.72265625 76.046875 C-0.50390625 76.09765625 -0.50390625 76.09765625 -3.50390625 75.09765625 C-3.5270309 65.46652913 -3.54482196 55.83541151 -3.55571842 46.20426273 C-3.56094699 41.73260076 -3.56804414 37.26095772 -3.5793457 32.78930664 C-3.59017554 28.47753652 -3.59618329 24.16578466 -3.59878349 19.854002 C-3.60063757 18.20529327 -3.60425785 16.55658559 -3.60963631 14.9078846 C-3.61684803 12.60661753 -3.61789714 10.30542685 -3.61743164 8.00415039 C-3.61965225 6.69176895 -3.62187286 5.37938751 -3.62416077 4.02723694 C-3.46439557 0.13511683 -3.46439557 0.13511683 0 0 Z " fill="#030303" transform="translate(341.50390625,746.90234375)"/>
<path d="M0 0 C1.43267967 -0.02893593 1.43267967 -0.02893593 2.89430237 -0.05845642 C7.29164052 -0.1161318 11.68880984 -0.16553216 16.08642578 -0.19628906 C18.40168212 -0.21782106 20.71685813 -0.25186618 23.03173828 -0.29882812 C26.37170751 -0.36599562 29.70998667 -0.39332265 33.05053711 -0.41235352 C34.59161888 -0.4540995 34.59161888 -0.4540995 36.16383362 -0.49668884 C42.55349773 -0.47854677 46.21538799 0.62988141 51.16844177 4.72276306 C52.51538086 6.20874023 52.51538086 6.20874023 52.51538086 8.20874023 C53.17538086 8.20874023 53.83538086 8.20874023 54.51538086 8.20874023 C56.53963205 14.09774632 56.8366655 19.43774765 56.85131836 25.63842773 C56.85797516 26.62819611 56.86463196 27.61796448 56.87149048 28.63772583 C56.88157864 30.72371574 56.88630869 32.80973767 56.88598633 34.89575195 C56.89035783 38.06703455 56.92671445 41.23692227 56.96459961 44.40795898 C56.9704691 46.44311052 56.97443761 48.4782686 56.97631836 50.51342773 C56.99068939 51.45121063 57.00506042 52.38899353 57.01986694 53.35519409 C56.97195796 60.34449504 55.61216961 66.46202348 51.06796265 71.95993042 C49.51538086 73.20874023 49.51538086 73.20874023 46.51538086 73.20874023 C46.51538086 73.86874023 46.51538086 74.52874023 46.51538086 75.20874023 C41.1870196 76.30859875 36.04152476 76.35372443 30.62866211 76.34155273 C29.68983688 76.34250946 28.75101166 76.34346619 27.78373718 76.3444519 C25.80780978 76.34513005 23.83188011 76.34330136 21.85595703 76.33911133 C18.82766758 76.33373986 15.79952522 76.33907796 12.77124023 76.34545898 C10.84871387 76.34479849 8.92618759 76.34351793 7.00366211 76.34155273 C6.09739578 76.34357697 5.19112946 76.3456012 4.25740051 76.34768677 C3.41610092 76.34453461 2.57480133 76.34138245 1.70800781 76.33813477 C0.9688765 76.33733917 0.22974518 76.33654358 -0.53178406 76.33572388 C-2.48461914 76.20874023 -2.48461914 76.20874023 -5.48461914 75.20874023 C-5.50774379 65.57761312 -5.52553485 55.94649549 -5.53643131 46.31534672 C-5.54165988 41.84368474 -5.54875703 37.3720417 -5.56005859 32.90039062 C-5.57088843 28.58862051 -5.57689618 24.27686865 -5.57949638 19.96508598 C-5.58135046 18.31637726 -5.58497074 16.66766958 -5.5903492 15.01896858 C-5.59756092 12.71770152 -5.59861003 10.41651084 -5.59814453 8.11523438 C-5.60036514 6.80285294 -5.60258575 5.4904715 -5.60487366 4.13832092 C-5.41695485 -0.43966362 -4.16054144 0.0782526 0 0 Z M6.51538086 12.20874023 C6.51538086 29.36874023 6.51538086 46.52874023 6.51538086 64.20874023 C14.37350586 64.23967773 14.37350586 64.23967773 22.39038086 64.27124023 C24.04279785 64.28034424 25.69521484 64.28944824 27.39770508 64.29882812 C28.69208496 64.30132568 29.98646484 64.30382324 31.32006836 64.30639648 C32.34112671 64.31407043 32.34112671 64.31407043 33.3828125 64.32189941 C37.07278626 64.37395542 37.07278626 64.37395542 40.51538086 63.20874023 C40.51538086 62.54874023 40.51538086 61.88874023 40.51538086 61.20874023 C41.17538086 61.20874023 41.83538086 61.20874023 42.51538086 61.20874023 C43.63775367 58.96399461 43.66415807 57.69683624 43.70825195 55.20556641 C43.72431488 54.38098434 43.74037781 53.55640228 43.75692749 52.70683289 C43.80140614 48.93395825 43.84244349 45.16125914 43.86547852 41.38818359 C43.88203636 39.39880677 43.90932414 37.40948939 43.94750977 35.42041016 C44.0023035 32.55136269 44.02415603 29.68370936 44.03881836 26.81420898 C44.06148773 25.92759079 44.0841571 25.0409726 44.10751343 24.12748718 C44.0929081 19.85336352 43.88864434 17.76371422 41.45068359 14.13891602 C37.71432749 11.68198918 35.47836691 11.63178832 31.02709961 11.72045898 C29.0967688 11.73919067 29.0967688 11.73919067 27.12744141 11.75830078 C25.50233643 11.8038208 23.87723145 11.84934082 22.20288086 11.89624023 C17.02600586 11.99936523 11.84913086 12.10249023 6.51538086 12.20874023 Z " fill="#030303" transform="translate(524.484619140625,746.791259765625)"/>
<path d="M0 0 C1.51400391 0.01740234 1.51400391 0.01740234 3.05859375 0.03515625 C4.07050781 0.04417969 5.08242188 0.05320312 6.125 0.0625 C7.29869141 0.07990234 7.29869141 0.07990234 8.49609375 0.09765625 C8.82609375 1.08765625 9.15609375 2.07765625 9.49609375 3.09765625 C10.15609375 3.09765625 10.81609375 3.09765625 11.49609375 3.09765625 C13.01171875 5.22265625 13.01171875 5.22265625 14.74609375 8.09765625 C16.93035014 11.63969365 19.13717093 15.05609698 21.68359375 18.34765625 C23.85209547 21.16670848 25.65119683 24.03104831 27.3515625 27.1640625 C29.37524453 30.58291098 31.76682025 33.75266551 34.10546875 36.9609375 C35.49609375 39.09765625 35.49609375 39.09765625 35.49609375 41.09765625 C36.15609375 41.09765625 36.81609375 41.09765625 37.49609375 41.09765625 C38.75445973 42.86169354 39.92992025 44.68545124 41.05859375 46.53515625 C43.03143298 50.00202061 43.03143298 50.00202061 45.49609375 53.09765625 C45.50640121 52.4484169 45.51670868 51.79917755 45.52732849 51.13026428 C45.63515511 44.39866573 45.74977156 37.66720755 45.8684082 30.93579102 C45.91183381 28.42052129 45.95350304 25.90522062 45.9934082 23.38989258 C46.05092668 19.78327081 46.11467342 16.17680594 46.1796875 12.5703125 C46.19639999 11.43803726 46.21311249 10.30576202 46.23033142 9.13917542 C46.25027664 8.09817184 46.27022186 7.05716827 46.29077148 5.98461914 C46.30631577 5.06306534 46.32186005 4.14151154 46.33787537 3.19203186 C46.49609375 1.09765625 46.49609375 1.09765625 47.49609375 0.09765625 C49.18218341 0.02560114 50.87110034 0.01379557 52.55859375 0.03515625 C53.47769531 0.04417969 54.39679688 0.05320312 55.34375 0.0625 C56.05402344 0.07410156 56.76429688 0.08570313 57.49609375 0.09765625 C58.96202211 3.02951298 58.63152129 5.6287947 58.64135742 8.90234375 C58.64471603 9.6016803 58.64807465 10.30101685 58.65153503 11.02154541 C58.66105222 13.3386003 58.6629884 15.65558302 58.6640625 17.97265625 C58.66727409 19.57926463 58.67063808 21.18587271 58.67414856 22.79248047 C58.68014143 26.16179076 58.68198825 29.53107538 58.68139648 32.90039062 C58.68129475 37.22503295 58.6949581 41.54951152 58.71216869 45.87411499 C58.72326689 49.19230918 58.72531638 52.51046347 58.72478676 55.82867432 C58.72596975 57.4235287 58.73040926 59.01838403 58.73811913 60.61322021 C58.74787708 62.83992114 58.74505806 65.06626248 58.73901367 67.29296875 C58.74043869 68.56156738 58.74186371 69.83016602 58.74333191 71.13720703 C58.49609375 74.09765625 58.49609375 74.09765625 56.49609375 76.09765625 C47.70504897 76.66482043 47.70504897 76.66482043 44.49609375 74.09765625 C43.74609375 71.97265625 43.74609375 71.97265625 43.49609375 70.09765625 C42.83609375 70.09765625 42.17609375 70.09765625 41.49609375 70.09765625 C41.49609375 69.10765625 41.49609375 68.11765625 41.49609375 67.09765625 C40.83609375 67.09765625 40.17609375 67.09765625 39.49609375 67.09765625 C37.98828125 65.234375 37.98828125 65.234375 36.37109375 62.78515625 C35.83226562 61.98464844 35.2934375 61.18414063 34.73828125 60.359375 C33.49609375 58.09765625 33.49609375 58.09765625 33.49609375 55.09765625 C32.83609375 55.09765625 32.17609375 55.09765625 31.49609375 55.09765625 C29.19960726 52.53619055 28.49609375 51.61798053 28.49609375 48.09765625 C27.83609375 48.09765625 27.17609375 48.09765625 26.49609375 48.09765625 C25.30066897 46.41640613 24.18896532 44.67517542 23.12109375 42.91015625 C21.29341412 39.90293888 19.52281405 37.12976748 17.26953125 34.421875 C15.49609375 32.09765625 15.49609375 32.09765625 15.49609375 29.09765625 C14.83609375 29.09765625 14.17609375 29.09765625 13.49609375 29.09765625 C12.50609375 27.44765625 11.51609375 25.79765625 10.49609375 24.09765625 C10.16609375 40.59765625 9.83609375 57.09765625 9.49609375 74.09765625 C5.47723038 76.10708794 3.83932773 76.46729318 -0.50390625 76.09765625 C-1.49390625 75.43765625 -2.48390625 74.77765625 -3.50390625 74.09765625 C-3.87139893 71.09251404 -3.87139893 71.09251404 -3.86035156 67.18530273 C-3.86239594 66.47460632 -3.86444031 65.76390991 -3.86654663 65.03167725 C-3.86956049 62.67710842 -3.85106176 60.32323584 -3.83203125 57.96875 C-3.82897485 56.33732782 -3.82709782 54.70590303 -3.82635498 53.07447815 C-3.82174829 49.65379874 -3.8073075 46.23335428 -3.78515625 42.81274414 C-3.75685118 38.41853442 -3.74594301 34.02450977 -3.74147415 29.63021755 C-3.73732617 26.26144035 -3.72751428 22.89270092 -3.71559906 19.52394295 C-3.70988485 17.90315111 -3.70512998 16.28235561 -3.70133209 14.66155815 C-3.69449038 12.40117823 -3.68086871 10.1409478 -3.66503906 7.88061523 C-3.65821106 6.5920311 -3.65138306 5.30344696 -3.64434814 3.97581482 C-3.4569242 0.13482544 -3.4569242 0.13482544 0 0 Z " fill="#030303" transform="translate(449.50390625,746.90234375)"/>
<path d="M0 0 C1.01437637 -0.00630432 2.02875275 -0.01260864 3.0738678 -0.019104 C4.16767258 -0.01505554 5.26147736 -0.01100708 6.38842773 -0.00683594 C8.07294289 -0.00970612 8.07294289 -0.00970612 9.79148865 -0.01263428 C12.16617049 -0.01399581 14.54085978 -0.01030163 16.91552734 -0.00195312 C20.56096002 0.00875657 24.20590097 -0.00185491 27.85131836 -0.01464844 C30.15535591 -0.01332703 32.45939315 -0.01076504 34.76342773 -0.00683594 C36.40717125 -0.01290863 36.40717125 -0.01290863 38.0841217 -0.019104 C39.60095802 -0.00964752 39.60095802 -0.00964752 41.1484375 0 C42.04095718 0.00159119 42.93347687 0.00318237 43.8530426 0.00482178 C46.00952148 0.25878906 46.00952148 0.25878906 48.00952148 2.25878906 C48.27944055 4.94718291 48.09689505 7.55020843 48.00952148 10.25878906 C45.12458791 11.89325004 43.02338992 12.51533417 39.71582031 12.56176758 C38.87847855 12.57840958 38.04113678 12.59505157 37.17842102 12.61219788 C35.83604622 12.62481911 35.83604622 12.62481911 34.46655273 12.63769531 C33.54235031 12.65468979 32.61814789 12.67168427 31.66593933 12.68919373 C28.71803583 12.74227446 25.77014646 12.78261489 22.82202148 12.82128906 C19.8632548 12.8651706 16.90459883 12.91179891 13.94596863 12.96409607 C12.10532445 12.9961364 10.26458184 13.02300025 8.42378235 13.04432678 C4.39463562 12.70605275 4.39463562 12.70605275 1.00952148 14.25878906 C0.93632527 16.9553376 0.91709611 19.62570364 0.94702148 22.32128906 C0.9515332 23.07990234 0.95604492 23.83851563 0.96069336 24.62011719 C0.97251468 26.49970778 0.99045071 28.37925805 1.00952148 30.25878906 C4.62528011 31.46404194 7.98079031 31.4511117 11.74780273 31.50488281 C13.3057509 31.53782904 14.86369347 31.57104056 16.42163086 31.60449219 C18.87040266 31.651815 21.31915307 31.69624297 23.76806641 31.7355957 C26.13655197 31.77551266 28.5045757 31.82701396 30.87280273 31.87988281 C31.96060783 31.89250404 31.96060783 31.89250404 33.07038879 31.90538025 C38.75526175 32.04237563 43.10682275 32.47343301 47.34912109 36.45410156 C50.26020405 41.37139623 49.63819401 46.5958635 49.5859375 52.17871094 C49.57205415 54.25390577 49.60618327 56.32459856 49.64428711 58.39941406 C49.64235352 59.71425781 49.64041992 61.02910156 49.63842773 62.38378906 C49.63915283 63.58261719 49.63987793 64.78144531 49.640625 66.01660156 C48.82321454 70.21590946 47.3295069 71.63062559 44.00952148 74.25878906 C39.28684615 77.09260781 33.90537794 76.54668394 28.56420898 76.52441406 C27.05396652 76.52728424 27.05396652 76.52728424 25.51321411 76.5302124 C23.39007313 76.53157074 21.26692375 76.52789888 19.14379883 76.51953125 C15.88921561 76.50880453 12.63518158 76.51945007 9.38061523 76.53222656 C7.31681193 76.53090534 5.25300897 76.52834373 3.18920898 76.52441406 C2.21418427 76.52846252 1.23915955 76.53251099 0.23458862 76.53668213 C-0.67000092 76.53037781 -1.57459045 76.52407349 -2.5065918 76.51757812 C-3.302034 76.51598694 -4.0974762 76.51439575 -4.91702271 76.51275635 C-6.99047852 76.25878906 -6.99047852 76.25878906 -9.99047852 74.25878906 C-10.31860352 72.12988281 -10.31860352 72.12988281 -10.24047852 69.69628906 C-10.22500977 68.890625 -10.20954102 68.08496094 -10.19360352 67.25488281 C-9.99047852 65.25878906 -9.99047852 65.25878906 -8.99047852 64.25878906 C-7.54863558 64.13657381 -6.10104707 64.08106149 -4.65429688 64.0534668 C-3.73341782 64.03352158 -2.81253876 64.01357635 -1.86375427 63.99302673 C-0.86272171 63.97631424 0.13831085 63.95960175 1.16967773 63.94238281 C2.18928085 63.92160172 3.20888397 63.90082062 4.25938416 63.87940979 C7.53019196 63.81380055 10.80108285 63.75497672 14.07202148 63.69628906 C16.28361877 63.65311465 18.49520751 63.60950072 20.70678711 63.56542969 C26.14094584 63.45810761 31.57518847 63.35687261 37.00952148 63.25878906 C37.00952148 57.31878906 37.00952148 51.37878906 37.00952148 45.25878906 C32.78268555 45.20271484 32.78268555 45.20271484 28.47045898 45.14550781 C25.72998458 45.09924672 22.98964429 45.04802975 20.24926758 44.99633789 C18.3502625 44.96316114 16.45116053 44.93510675 14.55200195 44.91235352 C11.81606913 44.87867388 9.08101838 44.82635186 6.34545898 44.77050781 C5.0794838 44.76092293 5.0794838 44.76092293 3.78793335 44.75114441 C-1.15904561 44.62880044 -4.78343288 44.13540483 -8.99047852 41.25878906 C-12.05486035 37.4900351 -12.35820689 34.53001148 -12.31860352 29.75097656 C-12.31344727 28.51734375 -12.30829102 27.28371094 -12.30297852 26.01269531 C-12.28235352 24.73265625 -12.26172852 23.45261719 -12.24047852 22.13378906 C-12.23532227 20.84601562 -12.23016602 19.55824219 -12.22485352 18.23144531 C-12.14520126 8.7229573 -12.14520126 8.7229573 -10.99047852 5.25878906 C-10.33047852 5.25878906 -9.67047852 5.25878906 -8.99047852 5.25878906 C-8.66047852 4.26878906 -8.33047852 3.27878906 -7.99047852 2.25878906 C-4.72277243 0.08031834 -3.78354144 0.0067393 0 0 Z " fill="#030303" transform="translate(632.990478515625,746.7412109375)"/>
<path d="M0 0 C0.89589844 0.01417969 1.79179688 0.02835938 2.71484375 0.04296875 C4.06255859 0.05263672 4.06255859 0.05263672 5.4375 0.0625 C7.65234375 0.23046875 7.65234375 0.23046875 8.65234375 1.23046875 C8.81093217 3.37433532 8.90363673 5.52313713 8.96875 7.671875 C9.00685791 8.84693604 9.04496582 10.02199707 9.08422852 11.23266602 C9.12733154 12.73756592 9.17043457 14.24246582 9.21484375 15.79296875 C9.35921875 20.55734375 9.50359375 25.32171875 9.65234375 30.23046875 C21.20234375 30.23046875 32.75234375 30.23046875 44.65234375 30.23046875 C44.90177134 21.48013314 44.90177134 21.48013314 45.13037109 12.72924805 C45.16598145 11.64039307 45.2015918 10.55153809 45.23828125 9.4296875 C45.26970215 8.31424561 45.30112305 7.19880371 45.33349609 6.04956055 C45.65234375 3.23046875 45.65234375 3.23046875 47.65234375 0.23046875 C50.03515625 -0.0625 50.03515625 -0.0625 52.77734375 0.04296875 C53.68742188 0.07003906 54.5975 0.09710937 55.53515625 0.125 C56.23382812 0.15980469 56.9325 0.19460938 57.65234375 0.23046875 C59.12357739 3.17293602 58.7715914 5.78231897 58.76586914 9.06689453 C58.76601517 9.76944366 58.76616119 10.4719928 58.76631165 11.1958313 C58.76561389 13.52251248 58.75782794 15.84911402 58.75 18.17578125 C58.74813533 19.78718014 58.74671166 21.39857959 58.74571228 23.00997925 C58.74189095 27.25475627 58.73206393 31.49949917 58.7210083 35.7442627 C58.71078593 40.07429543 58.70621289 44.40433368 58.70117188 48.734375 C58.69044133 57.23308859 58.6733695 65.73177443 58.65234375 74.23046875 C55.1135154 76.15656971 52.71484615 76.57621363 48.65234375 76.23046875 C47.66234375 75.57046875 46.67234375 74.91046875 45.65234375 74.23046875 C45.31176758 71.34130859 45.31176758 71.34130859 45.359375 67.69140625 C45.36686768 66.51884277 45.37436035 65.3462793 45.38208008 64.13818359 C45.40939209 62.6423877 45.4367041 61.1465918 45.46484375 59.60546875 C45.52671875 54.86171875 45.58859375 50.11796875 45.65234375 45.23046875 C33.44234375 45.23046875 21.23234375 45.23046875 8.65234375 45.23046875 C8.77104382 54.68458335 8.77104382 54.68458335 8.92260742 64.13818359 C8.9301001 65.31074707 8.93759277 66.48331055 8.9453125 67.69140625 C8.96887817 69.49810791 8.96887817 69.49810791 8.99291992 71.34130859 C8.88052979 72.29473145 8.76813965 73.2481543 8.65234375 74.23046875 C5.32982125 76.44548375 4.77502784 76.42457751 1.02734375 75.91796875 C0.23070312 75.81871094 -0.5659375 75.71945312 -1.38671875 75.6171875 C-3.34765625 75.23046875 -3.34765625 75.23046875 -4.34765625 74.23046875 C-4.4525686 72.00202404 -4.48622837 69.77020952 -4.49291992 67.53930664 C-4.49795784 66.49052086 -4.49795784 66.49052086 -4.50309753 65.42054749 C-4.51263418 63.09805549 -4.514552 60.77563538 -4.515625 58.453125 C-4.51883572 56.84508738 -4.52219965 55.23705006 -4.52571106 53.62901306 C-4.53170914 50.25372643 -4.53355027 46.87846542 -4.53295898 43.50317383 C-4.53285733 39.17065575 -4.54651008 34.83830142 -4.56373119 30.50582218 C-4.57483077 27.18333679 -4.57687882 23.86089124 -4.57634926 20.53838921 C-4.57753245 18.94074374 -4.58197307 17.34309735 -4.58968163 15.74547005 C-4.59944047 13.51387069 -4.59661997 11.28263009 -4.59057617 9.05102539 C-4.59200119 7.77941055 -4.59342621 6.50779572 -4.59489441 5.19764709 C-4.29231694 1.56632533 -3.73229159 0.36639801 0 0 Z " fill="#030303" transform="translate(697.34765625,746.76953125)"/>
<path d="M0 0 C1.61188454 -0.00472824 1.61188454 -0.00472824 3.2563324 -0.009552 C4.42608109 -0.00752777 5.59582977 -0.00550354 6.80102539 -0.00341797 C7.99345352 -0.00437469 9.18588165 -0.00533142 10.41444397 -0.00631714 C12.94231214 -0.00699923 15.47018205 -0.00514293 17.99804688 -0.00097656 C21.87837647 0.00436657 25.75859007 -0.00091819 29.63891602 -0.00732422 C32.08878606 -0.00666335 34.53865604 -0.00538201 36.98852539 -0.00341797 C38.15624985 -0.0054422 39.3239743 -0.00746643 40.52708435 -0.009552 C42.14369713 -0.00482376 42.14369713 -0.00482376 43.79296875 0 C44.74481552 0.00079559 45.69666229 0.00159119 46.67735291 0.00241089 C48.96118164 0.12939453 48.96118164 0.12939453 50.96118164 1.12939453 C51.04214968 2.58681916 51.10035938 4.0455226 51.14868164 5.50439453 C51.20088867 6.72255859 51.20088867 6.72255859 51.25415039 7.96533203 C51.1574707 8.67947266 51.06079102 9.39361328 50.96118164 10.12939453 C47.87062209 12.18976756 47.25192002 12.37738695 43.76513672 12.35644531 C42.92449173 12.35629425 42.08384674 12.35614319 41.21772766 12.35598755 C40.31451279 12.34566498 39.41129791 12.33534241 38.48071289 12.32470703 C37.08872932 12.32046219 37.08872932 12.32046219 35.66862488 12.31613159 C32.70351286 12.3049329 29.73870243 12.27982888 26.77368164 12.25439453 C24.76392038 12.24436433 22.75415438 12.23523855 20.74438477 12.22705078 C15.81644059 12.20669579 10.88914889 12.16754654 5.96118164 12.12939453 C5.96118164 18.72939453 5.96118164 25.32939453 5.96118164 32.12939453 C8.24797852 32.10619141 10.53477539 32.08298828 12.89086914 32.05908203 C15.10163823 32.04349193 17.31240124 32.03134356 19.52319336 32.01953125 C21.06163262 32.00946336 22.60005271 31.99580807 24.13842773 31.97851562 C26.34762297 31.95430136 28.55656559 31.94291962 30.76586914 31.93408203 C31.45550751 31.92375946 32.14514587 31.91343689 32.85568237 31.90280151 C34.5591907 31.90239975 36.26204107 32.00748428 37.96118164 32.12939453 C39.96118164 34.12939453 39.96118164 34.12939453 40.19165039 36.00439453 C40.1774707 36.70564453 40.16329102 37.40689453 40.14868164 38.12939453 C40.14223633 38.83064453 40.13579102 39.53189453 40.12915039 40.25439453 C39.96118164 42.12939453 39.96118164 42.12939453 38.96118164 44.12939453 C28.07118164 44.12939453 17.18118164 44.12939453 5.96118164 44.12939453 C5.96118164 50.72939453 5.96118164 57.32939453 5.96118164 64.12939453 C10.5824707 64.09458984 10.5824707 64.09458984 15.29711914 64.05908203 C18.27237536 64.04349625 21.24762709 64.03134539 24.22290039 64.01953125 C26.29486111 64.00945741 28.36680757 63.99579787 30.4387207 63.97851562 C33.41238928 63.95432789 36.38587034 63.94292545 39.35961914 63.93408203 C40.28986908 63.92375946 41.22011902 63.91343689 42.17855835 63.90280151 C43.03929962 63.90265045 43.90004089 63.90249939 44.78686523 63.90234375 C45.54631439 63.89790253 46.30576355 63.8934613 47.08822632 63.8888855 C48.96118164 64.12939453 48.96118164 64.12939453 50.96118164 66.12939453 C51.26196289 68.00439453 51.26196289 68.00439453 51.27368164 70.12939453 C51.29043945 70.83064453 51.30719727 71.53189453 51.32446289 72.25439453 C51.20458008 72.87314453 51.08469727 73.49189453 50.96118164 74.12939453 C47.66777176 76.32500112 46.70036917 76.37829159 42.87890625 76.37231445 C41.84450912 76.37539108 40.810112 76.37846771 39.74436951 76.38163757 C38.62869095 76.37445206 37.51301239 76.36726654 36.36352539 76.35986328 C35.21831924 76.35940506 34.0731131 76.35894684 32.89320374 76.35847473 C30.47143518 76.35545238 28.04966858 76.34756662 25.62792969 76.33520508 C21.91016801 76.31695093 18.19265532 76.31469537 14.47485352 76.31494141 C12.12524198 76.31002617 9.77563213 76.30419783 7.42602539 76.29736328 C6.3083226 76.29625046 5.19061981 76.29513763 4.03904724 76.29399109 C2.49217979 76.28442131 2.49217979 76.28442131 0.9140625 76.2746582 C0.00377792 76.27084641 -0.90650665 76.26703461 -1.84437561 76.2631073 C-4.03881836 76.12939453 -4.03881836 76.12939453 -6.03881836 75.12939453 C-6.06194301 65.49826742 -6.07973407 55.86714979 -6.09063053 46.23600101 C-6.09585909 41.76433904 -6.10295625 37.292696 -6.11425781 32.82104492 C-6.12508765 28.5092748 -6.1310954 24.19752294 -6.1336956 19.88574028 C-6.13554968 18.23703155 -6.13916996 16.58832388 -6.14454842 14.93962288 C-6.15176014 12.63835581 -6.15280925 10.33716514 -6.15234375 8.03588867 C-6.15456436 6.72350723 -6.15678497 5.41112579 -6.15907288 4.05897522 C-5.96142646 -0.75598844 -4.34980111 0.00363879 0 0 Z " fill="#030303" transform="translate(773.038818359375,746.87060546875)"/>
<path d="M0 0 C0 0.66 0 1.32 0 2 C0.99 2.33 1.98 2.66 3 3 C6.71137905 8.28157788 7.43506857 12.58273861 7 19 C5.64194451 22.70378769 4.18634345 25.72048483 2 29 C1.34 29 0.68 29 0 29 C0 29.66 0 30.32 0 31 C-1.32 31.66 -2.64 32.32 -4 33 C-4 43.89 -4 54.78 -4 66 C-2.35 66.66 -0.7 67.32 1 68 C4.62146714 70.89717371 5.96142435 73.4995055 7 78 C7.51362286 84.47164801 6.91779889 89.47432634 2.59375 94.69921875 C-1.90369781 99.07998749 -6.73174167 100.87227687 -13 101 C-19.23703013 99.83734804 -24.092971 96.63038483 -27.8125 91.5 C-29.80378121 85.63096063 -30.29682001 79.3941462 -28.05078125 73.515625 C-25.55186609 69.1957338 -23.68871996 67.76679168 -19 66 C-18.8264817 61.39204048 -18.69972515 56.78599458 -18.61547852 52.17553711 C-18.58035265 50.60879384 -18.53263773 49.04227881 -18.47192383 47.47631836 C-17.74767593 38.76547807 -17.74767593 38.76547807 -20.52124023 30.92138672 C-22.59432801 29.38624077 -22.59432801 29.38624077 -26 28 C-29.6668262 23.26861136 -29.62452178 17.98991749 -29.47265625 12.19921875 C-28.73634065 7.21539663 -26.77128637 4.26577351 -23 1 C-15.36087708 -4.51714433 -8.23363302 -4.11681651 0 0 Z M-15.25 10.0625 C-17.33343223 12.00652406 -17.33343223 12.00652406 -17.5 15.5 C-17.31831521 18.98138734 -17.31831521 18.98138734 -15.3125 21 C-12.40619157 22.25678203 -10.98152232 21.94153336 -8 21 C-7.34 20.67 -6.68 20.34 -6 20 C-5.91903197 18.54257537 -5.86082226 17.08387193 -5.8125 15.625 C-5.77769531 14.81289063 -5.74289062 14.00078125 -5.70703125 13.1640625 C-5.80371094 12.44992187 -5.90039062 11.73578125 -6 11 C-9.47177062 8.68548625 -11.40190881 8.24534583 -15.25 10.0625 Z M-15.1875 76.0625 C-17.32518944 77.98756587 -17.32518944 77.98756587 -17.5625 81.4375 C-17.33963148 85.15518339 -17.33963148 85.15518339 -14.5 87.4375 C-13.675 87.953125 -12.85 88.46875 -12 89 C-10.02 88.01 -8.04 87.02 -6 86 C-5.73180817 81.97964364 -5.73180817 81.97964364 -6 78 C-7.67256616 75.88998841 -7.67256616 75.88998841 -10 75 C-12.95556001 74.78154802 -12.95556001 74.78154802 -15.1875 76.0625 Z " fill="#030303" transform="translate(525,504)"/>
<path d="M0 0 C0.95184677 0.00142502 1.90369354 0.00285004 2.88438416 0.00431824 C3.96212601 0.00124161 5.03986786 -0.00183502 6.15026855 -0.00500488 C7.31799301 0.00218063 8.48571747 0.00936615 9.68882751 0.01676941 C10.88221237 0.01722763 12.07559723 0.01768585 13.30514526 0.01815796 C15.8312428 0.0211831 18.35733843 0.02907716 20.88340759 0.04142761 C24.76587984 0.05967803 28.64811374 0.0619374 32.53062439 0.06169128 C34.97919418 0.06660646 37.42776233 0.07243478 39.87632751 0.07926941 C41.63095055 0.08093864 41.63095055 0.08093864 43.42102051 0.0826416 C45.03290504 0.09221138 45.03290504 0.09221138 46.67735291 0.10197449 C47.62840408 0.10578629 48.57945526 0.10959808 49.55932617 0.11352539 C51.71617126 0.24723816 51.71617126 0.24723816 52.71617126 1.24723816 C52.78822638 2.93332782 52.80003194 4.62224475 52.77867126 6.30973816 C52.76964783 7.22883972 52.76062439 8.14794128 52.75132751 9.09489441 C52.73972595 9.80516785 52.72812439 10.51544128 52.71617126 11.24723816 C50.42985632 12.39039563 49.17269721 12.36836548 46.63365173 12.36076355 C45.37257095 12.36065025 45.37257095 12.36065025 44.08601379 12.36053467 C42.72344955 12.35279274 42.72344955 12.35279274 41.33335876 12.34489441 C40.40395477 12.34347946 39.47455078 12.34206451 38.51698303 12.34060669 C35.54168002 12.33499869 32.56645162 12.32244484 29.59117126 12.30973816 C27.57684943 12.30472419 25.56252642 12.3001611 23.54820251 12.29606628 C18.60414006 12.28587654 13.66023941 12.26630269 8.71617126 12.24723816 C9.04617126 18.51723816 9.37617126 24.78723816 9.71617126 31.24723816 C25.55617126 31.74223816 25.55617126 31.74223816 41.71617126 32.24723816 C42.83873258 34.49236078 42.85030889 35.76180465 42.84117126 38.24723816 C42.84503845 39.29911316 42.84503845 39.29911316 42.84898376 40.37223816 C42.71617126 42.24723816 42.71617126 42.24723816 41.71617126 44.24723816 C25.87617126 44.74223816 25.87617126 44.74223816 9.71617126 45.24723816 C9.38617126 55.14723816 9.05617126 65.04723816 8.71617126 75.24723816 C-1.28382874 76.24723816 -1.28382874 76.24723816 -4.28382874 74.24723816 C-4.65805054 71.28678894 -4.65805054 71.28678894 -4.65614319 67.44255066 C-4.65979385 66.74321411 -4.66344452 66.04387756 -4.66720581 65.323349 C-4.67532794 63.00606687 -4.66168815 60.68948041 -4.64710999 58.37223816 C-4.64659157 56.76563009 -4.64710854 55.15902138 -4.64862061 53.55241394 C-4.64853081 50.1830144 -4.63808627 46.81385377 -4.62001038 43.44450378 C-4.59732281 39.11982695 -4.59677824 34.79549938 -4.60352802 30.47077942 C-4.60686532 27.15256125 -4.60024246 23.8344231 -4.59039879 20.51622009 C-4.58654235 18.92137572 -4.5854004 17.32652245 -4.58698463 15.73167419 C-4.58735441 13.50491803 -4.57476015 11.27861407 -4.55848694 9.05192566 C-4.55157585 7.14902771 -4.55157585 7.14902771 -4.54452515 5.20768738 C-4.22943663 1.62956541 -3.68458152 0.39887805 0 0 Z " fill="#030303" transform="translate(895.2838287353516,746.7527618408203)"/>
<path d="M0 0 C0.89589844 -0.01417969 1.79179688 -0.02835938 2.71484375 -0.04296875 C5.0625 0.1875 5.0625 0.1875 7.0625 2.1875 C7.3409729 4.74380493 7.3409729 4.74380493 7.38134766 8.01416016 C7.40121735 9.23527496 7.42108704 10.45638977 7.44155884 11.71450806 C7.45343608 13.05185769 7.46509889 14.38920925 7.4765625 15.7265625 C7.49526749 17.09135112 7.5148404 18.45612811 7.5352478 19.82089233 C7.58664605 23.41456243 7.62623027 27.00827005 7.66339111 30.60211182 C7.70338278 34.26869001 7.75438942 37.93511359 7.8046875 41.6015625 C7.90258212 48.79681693 7.98203176 55.99194484 8.0625 63.1875 C22.2525 63.5175 36.4425 63.8475 51.0625 64.1875 C51.0625 67.8175 51.0625 71.4475 51.0625 75.1875 C48.13845157 76.16218281 46.24094793 76.31941327 43.19555664 76.33276367 C42.2076564 76.33914352 41.21975616 76.34552338 40.20191956 76.35209656 C38.60343422 76.35376579 38.60343422 76.35376579 36.97265625 76.35546875 C35.87658554 76.35879715 34.78051483 76.36212555 33.65122986 76.36555481 C31.33202535 76.37061981 29.01281355 76.37296327 26.69360352 76.37280273 C23.14261901 76.37498915 19.59194515 76.39314942 16.04101562 76.41210938 C13.78906356 76.41504336 11.53711003 76.41702812 9.28515625 76.41796875 C8.22152359 76.42515427 7.15789093 76.43233978 6.06202698 76.43974304 C5.07097458 76.43666641 4.07992218 76.43358978 3.05883789 76.43041992 C1.75336754 76.43255745 1.75336754 76.43255745 0.42152405 76.43473816 C-2.11492689 76.16890473 -3.74915835 75.46443327 -5.9375 74.1875 C-5.96062484 64.68675675 -5.9784158 55.18602312 -5.98931217 45.68525791 C-5.99454069 41.27412996 -6.00163777 36.8630212 -6.01293945 32.4519043 C-6.02376944 28.19848885 -6.02977707 23.94509191 -6.03237724 19.69166374 C-6.03423129 18.06528367 -6.03785152 16.43890466 -6.04323006 14.81253242 C-6.05044198 12.54239807 -6.05149088 10.27234115 -6.05102539 8.00219727 C-6.053246 6.70758072 -6.05546661 5.41296417 -6.05775452 4.07911682 C-5.86148902 -0.64024531 -4.2724075 0.03064855 0 0 Z " fill="#030303" transform="translate(834.9375,746.8125)"/>
<path d="M0 0 C0.89589844 -0.01417969 1.79179687 -0.02835938 2.71484375 -0.04296875 C5.0625 0.1875 5.0625 0.1875 7.0625 2.1875 C7.32319641 5.14794922 7.32319641 5.14794922 7.3371582 8.9921875 C7.34226913 9.69152405 7.34738007 10.3908606 7.35264587 11.11138916 C7.36657311 13.42851258 7.36558298 15.74533965 7.36328125 18.0625 C7.36716613 19.66910921 7.37150037 21.27571738 7.37626648 22.88232422 C7.38373517 26.25166146 7.3834325 29.62089393 7.37817383 32.99023438 C7.37237468 37.31497529 7.3893175 41.63928857 7.4125185 45.96395874 C7.42722565 49.28217083 7.42813175 52.60027916 7.42500877 55.91851807 C7.42552339 57.51337533 7.43078737 59.10823818 7.44082069 60.70306396 C7.45311151 62.92993251 7.44643904 65.15595819 7.43481445 67.3828125 C7.43544388 68.65141113 7.4360733 69.92000977 7.4367218 71.22705078 C7.31322861 72.20399902 7.18973541 73.18094727 7.0625 74.1875 C3.7399775 76.402515 3.18518409 76.38160876 -0.5625 75.875 C-1.35914063 75.77574219 -2.15578125 75.67648437 -2.9765625 75.57421875 C-4.9375 75.1875 -4.9375 75.1875 -5.9375 74.1875 C-6.03717586 71.92300621 -6.06549831 69.65535789 -6.06689453 67.38867188 C-6.06864685 66.67812149 -6.07039917 65.96757111 -6.07220459 65.23548889 C-6.07662277 62.87571809 -6.07368525 60.51602163 -6.0703125 58.15625 C-6.07098555 56.52339666 -6.07195558 54.89054342 -6.07321167 53.25769043 C-6.0746886 49.83112639 -6.07253426 46.40458837 -6.06787109 42.97802734 C-6.0621738 38.57595499 -6.06545284 34.17394359 -6.07144356 29.77187347 C-6.07504931 26.39881935 -6.07391052 23.02577978 -6.07131577 19.65272522 C-6.07064654 18.02913913 -6.07147478 16.40555173 -6.07379532 14.78196716 C-6.07632209 12.5167183 -6.07248094 10.2515695 -6.06689453 7.98632812 C-6.06609894 6.69472778 -6.06530334 5.40312744 -6.06448364 4.0723877 C-5.85707328 -0.63968066 -4.26782207 0.03061565 0 0 Z " fill="#030303" transform="translate(427.9375,746.8125)"/>
</svg>
